<svg width="44" height="49" viewBox="0 0 44 49" fill="none" xmlns="http://www.w3.org/2000/svg">
<g clip-path="url(#clip0_1_491)">
<path d="M27.5944 18.8636L23.9584 22.4999L27.5944 26.1361C28.1352 26.6771 28.1352 27.5535 27.5944 28.0945C27.3241 28.3648 26.9699 28.5 26.6158 28.5C26.2611 28.5 25.9067 28.365 25.6367 28.0945L22 24.458L18.3636 28.0945C18.0934 28.3647 17.7391 28.4999 17.3846 28.4999C17.0303 28.4999 16.6763 28.3649 16.4058 28.0945C15.865 27.5537 15.865 26.6773 16.4058 26.136L20.0416 22.4999L16.4056 18.8636C15.8648 18.3228 15.8648 17.4462 16.4056 16.9054C16.9463 16.365 17.8224 16.365 18.3634 16.9054L22 20.5417L25.6363 16.9054C26.1773 16.365 27.0535 16.365 27.5942 16.9054C28.1352 17.4462 28.1352 18.3228 27.5944 18.8636Z" fill="#565656"/>
</g>
<defs>
<clipPath id="clip0_1_491">
<rect width="12" height="12" fill="white" transform="translate(16 16.5)"/>
</clipPath>
</defs>
</svg>
