<svg width="54" height="55" viewBox="0 0 54 55" fill="none" xmlns="http://www.w3.org/2000/svg">
<g opacity="0.7" clip-path="url(#clip0_1_400)">
<path fill-rule="evenodd" clip-rule="evenodd" d="M26.9734 5.22021C21.1781 5.22021 16.48 9.91829 16.48 15.7137V32.0368C16.48 37.8322 21.1781 42.5302 26.9734 42.5302H43.2965C49.092 42.5302 53.79 37.8322 53.79 32.0368V15.7137C53.79 9.91829 49.092 5.22021 43.2965 5.22021H26.9734ZM39.8787 15.8516C39.1785 15.8529 38.4852 15.9943 37.8373 16.268C37.2509 15.548 36.5463 14.9396 35.7556 14.4706C36.8062 14.0198 37.9295 13.7763 39.0673 13.7528C39.1288 13.7514 39.1902 13.7507 39.2516 13.7507C42.1826 13.6738 44.9005 15.3226 46.257 18.0005C46.2958 18.1344 46.3089 18.34 46.241 18.3768C46.12 18.4429 46.1044 18.4512 45.7852 18.1259C44.2137 16.5469 42.0702 15.7216 39.8787 15.8516ZM48.3002 23.2291C48.2334 22.6236 47.8311 22.6221 47.7509 22.6285C47.5374 22.6305 42.926 22.66 42.191 22.6386C41.8227 22.628 41.7144 22.7044 41.6924 22.7249C41.6859 22.8028 41.6305 23.4975 41.6305 24.0508C41.6305 24.3214 41.6305 24.3266 42.2249 24.4329C42.4057 24.4652 42.6307 24.5054 42.9001 24.5673C43.0655 24.6054 43.2125 24.6377 43.3443 24.6668L43.3595 24.6702C43.9082 24.7135 44.4277 24.9377 44.8393 25.3086C45.3552 25.8078 44.8563 27.457 44.7511 27.7824C43.9053 30.7218 41.9647 32.4114 39.4289 32.4114C38.938 32.4114 38.4497 32.3391 37.9793 32.1969C37.2885 32.9473 36.4885 33.586 35.6073 34.0907C36.686 34.569 37.8503 34.8164 39.0275 34.8173C44.1766 34.8173 48.3658 30.1068 48.3658 24.3164L48.366 24.3099C48.3663 23.9486 48.3442 23.5876 48.3002 23.2291ZM33.319 24.0941C33.2561 21.5065 34.3072 19.0184 36.2008 17.2717C35.211 16.719 34.1142 16.3897 32.9859 16.3065C30.8356 18.3816 29.6361 21.2641 29.6738 24.2656C29.6518 27.0572 30.682 29.7531 32.5562 31.8073C33.6149 31.6086 34.5678 31.0326 35.2406 30.1842C33.9336 28.4329 33.256 26.2852 33.319 24.0941ZM31.3697 13.9012C31.3087 13.9012 31.2477 13.9019 31.1867 13.9032C25.7604 14.2042 21.5838 18.8669 21.8196 24.3602C21.8196 30.1263 26.0194 34.8173 31.1814 34.8173C36.3213 34.8173 40.5031 30.1299 40.5031 24.3683V24.3611C40.5035 24.0018 40.4816 23.643 40.4374 23.2865C40.3704 22.6812 39.9621 22.704 39.9163 22.7087C39.6981 22.7113 35.0826 22.7405 34.347 22.7192C34.1847 22.6952 34.0192 22.7209 33.8716 22.7932C33.8622 22.9077 33.8104 23.5714 33.8104 24.1035C33.8104 24.3581 33.8104 24.3581 34.3855 24.4606C34.5666 24.4929 34.7921 24.5332 35.0621 24.5951C35.2285 24.6332 35.3763 24.6656 35.5087 24.6946L35.5218 24.6976C36.0754 24.7412 36.5996 24.967 37.0144 25.3404C37.5281 25.8354 37.0812 27.3733 36.932 27.833C36.0831 30.7744 34.1326 32.466 31.5833 32.466C28.0592 32.466 25.4015 28.9078 25.4015 24.1891C25.4015 19.6253 28.3596 15.9121 31.9957 15.9121C34.1894 15.7848 36.3351 16.5964 37.9082 18.1487C38.2131 18.4542 38.2247 18.4489 38.3343 18.3901C38.387 18.3621 38.3749 18.1716 38.3394 18.0521C36.9894 15.4361 34.2855 13.8257 31.3697 13.9012Z" fill="white"/>
</g>
<defs>
<clipPath id="clip0_1_400">
<rect width="37.31" height="37.31" fill="white" transform="translate(16.48 5.22021)"/>
</clipPath>
</defs>
</svg>
