<svg width="17" height="16" viewBox="0 0 17 16" fill="none" xmlns="http://www.w3.org/2000/svg">
<path d="M12.6517 4.9975H11.4027V4.74771C11.4027 3.22898 10.1737 2 8.655 2C7.13627 2 5.90729 3.22898 5.90729 4.74771V4.9975H4.65833C3.55925 4.9975 2.66 5.88676 2.66 6.99584V12.0017C2.66 13.1007 3.54926 14 4.65833 14H12.6617C13.7607 14 14.66 13.1107 14.66 12.0017V6.99584C14.66 5.89675 13.7707 4.9975 12.6617 4.9975H12.6517ZM7.40604 4.74771C7.40604 4.05828 7.96558 3.49875 8.655 3.49875C9.34443 3.49875 9.90396 4.05828 9.90396 4.74771V4.9975H7.40604V4.74771ZM13.1513 11.9917C13.1513 12.2614 12.9314 12.4913 12.6517 12.4913H4.65833C4.38856 12.4913 4.15875 12.2714 4.15875 11.9917V6.98584C4.15875 6.71607 4.37857 6.48626 4.65833 6.48626H5.90729V7.48543H7.40604V6.48626H9.90396V7.48543H11.4027V6.48626H12.6517C12.9214 6.48626 13.1513 6.70608 13.1513 6.98584V11.9917Z" fill="black"/>
</svg>
