<svg width="1312" height="221" viewBox="0 0 1312 221" fill="none" xmlns="http://www.w3.org/2000/svg">
<g clip-path="url(#clip0_1_452)">
<path fill-rule="evenodd" clip-rule="evenodd" d="M0 104.82C0 45.1317 47.7192 0.25 111.198 0.25C137.048 0.25 159.565 7.39969 180.162 21.676C191.548 29.5868 196.801 35.5834 196.801 42.8484V77.6744H196.547C179.028 36.0908 147.277 10.2134 111.198 10.2134C68.2 10.2134 36.5878 50.1365 36.5878 104.959C36.5878 160.173 68.7092 199.081 112.98 199.081C140.357 199.081 164.68 180.33 164.68 160.957V137.248C164.68 127.053 160.584 118.889 153.155 114.553V114.299H208.442V114.553C201.013 118.889 196.917 127.053 196.917 137.248V165.316C196.917 173.227 191.548 181.899 173.752 192.346C154.937 203.44 132.674 209.437 110.273 209.437C47.3489 209.39 0 164.509 0 104.82ZM360.347 189.625C346.392 178.024 338.593 162.087 338.593 142.183V29.5869C338.593 19.3928 334.497 11.2283 327.069 6.89232V6.63862H382.355V6.89232C374.927 11.2283 370.83 19.3928 370.83 29.5869V137.34C370.83 154.684 376.199 168.337 386.058 178.278C397.328 189.625 414.338 196.267 435.443 196.521C474.739 196.913 500.195 173.942 500.195 140.407V29.5869C500.195 19.3928 496.099 11.2283 488.67 6.89232V6.63862H521.44V6.89232C514.011 11.2283 509.915 19.3928 509.915 29.5869V140.546C509.915 181.599 476.521 209.413 426.094 209.413C397.444 209.39 375.436 202.01 360.347 189.625ZM632.522 104.959C632.522 45.1547 680.241 0.25 743.72 0.25C769.431 0.25 792.088 7.39969 812.684 21.676C824.07 29.5868 829.323 35.5834 829.323 42.8484V77.6744H829.069C811.55 36.0908 779.799 10.2134 743.073 10.2134C700.722 10.2134 669.11 50.1365 669.11 104.959C669.11 159.55 700.722 199.335 744.345 199.335C779.545 199.335 812.8 173.573 834.438 130.859H834.692L829.948 167.069C829.046 173.965 824.07 180.215 812.684 188.103C792.088 202.379 769.431 209.39 743.72 209.39C679.478 209.137 632.522 164.509 632.522 104.959ZM944.872 104.959C944.872 45.1547 992.592 0.25 1056.07 0.25C1081.78 0.25 1104.44 7.39969 1125.03 21.676C1136.42 29.5868 1141.67 35.5834 1141.67 42.8484V77.6744H1141.42C1123.9 36.0908 1092.15 10.2134 1055.42 10.2134C1013.07 10.2134 981.46 50.1365 981.46 104.959C981.46 159.55 1013.07 199.335 1056.7 199.335C1091.89 199.335 1125.15 173.573 1146.79 130.859H1147.04L1142.3 167.069C1141.4 173.965 1136.42 180.215 1125.01 188.103C1104.41 202.379 1081.76 209.39 1056.05 209.39C991.851 209.137 944.872 164.509 944.872 104.959ZM1268.24 180.077V29.5869C1268.24 19.3928 1264.14 11.2283 1256.71 6.89232V6.63862H1312V6.89232C1304.57 11.2283 1300.48 19.3928 1300.48 29.5869V180.077C1300.48 190.271 1304.57 198.435 1312 202.771V203.025H1256.71V202.771C1264.14 198.435 1268.24 190.271 1268.24 180.077Z" fill="white"/>
</g>
<defs>
<clipPath id="clip0_1_452">
<rect width="1312" height="220" fill="white" transform="translate(0 0.25)"/>
</clipPath>
</defs>
</svg>
