<svg width="49" height="25" viewBox="0 0 49 25" fill="none" xmlns="http://www.w3.org/2000/svg">
<path d="M42.5202 7.5H40.2702V6.25C40.2702 5.29 39.4902 4.5 38.5202 4.5H34.5103C33.5503 4.5 32.7603 5.28 32.7603 6.25V7.5H30.5103C29.4103 7.5 28.5103 8.39 28.5103 9.5V18.5C28.5103 19.6 29.4003 20.5 30.5103 20.5H42.5102C43.6102 20.5 44.5102 19.61 44.5102 18.5V9.5C44.5102 8.4 43.6202 7.5 42.5102 7.5H42.5202ZM34.2703 6.25C34.2703 6.11 34.3803 6 34.5202 6H38.5302C38.6702 6 38.7802 6.11 38.7802 6.25V7.5H34.2803V6.25H34.2703ZM43.0202 18.51C43.0202 18.78 42.8002 19.01 42.5202 19.01H30.5203C30.2503 19.01 30.0203 18.79 30.0203 18.51V9.51C30.0203 9.24 30.2403 9.01 30.5203 9.01H32.7703V10.51H34.2703V9.01H38.7702V10.51H40.2702V9.01H42.5202C42.7902 9.01 43.0202 9.23 43.0202 9.51V18.51Z" fill="white"/>
</svg>
