<svg width="49" height="25" viewBox="0 0 49 25" fill="none" xmlns="http://www.w3.org/2000/svg">
<path d="M36.52 14.5C39.28 14.5 41.52 12.26 41.52 9.5C41.52 6.74 39.28 4.5 36.52 4.5C33.76 4.5 31.52 6.74 31.52 9.5C31.52 12.26 33.76 14.5 36.52 14.5ZM36.52 6C38.45 6 40.02 7.57 40.02 9.5C40.02 11.43 38.45 13 36.52 13C34.59 13 33.02 11.43 33.02 9.5C33.02 7.57 34.59 6 36.52 6ZM43.27 18.5V20.5H41.77V18.5C41.77 17.81 41.21 17.25 40.52 17.25H32.52C31.83 17.25 31.27 17.81 31.27 18.5V20.5H29.77V18.5C29.77 16.98 31 15.75 32.52 15.75H40.52C42.04 15.75 43.27 16.98 43.27 18.5Z" fill="white"/>
</svg>
