<svg width="1312" height="221" viewBox="0 0 1312 221" fill="none" xmlns="http://www.w3.org/2000/svg">
<g opacity="0.6">
<g clip-path="url(#clip0_1_34)">
<path fill-rule="evenodd" clip-rule="evenodd" d="M0 105.07C0 45.3817 47.7192 0.5 111.198 0.5C137.048 0.5 159.565 7.64969 180.162 21.926C191.548 29.8368 196.801 35.8334 196.801 43.0984V77.9244H196.547C179.028 36.3408 147.277 10.4634 111.198 10.4634C68.2 10.4634 36.5878 50.3865 36.5878 105.209C36.5878 160.423 68.7092 199.331 112.98 199.331C140.357 199.331 164.68 180.58 164.68 161.207V137.498C164.68 127.303 160.584 119.139 153.155 114.803V114.549H208.442V114.803C201.013 119.139 196.917 127.303 196.917 137.498V165.566C196.917 173.477 191.548 182.149 173.752 192.596C154.937 203.69 132.674 209.687 110.273 209.687C47.3489 209.64 0 164.759 0 105.07ZM360.347 189.875C346.392 178.274 338.593 162.337 338.593 142.433V29.8369C338.593 19.6428 334.497 11.4783 327.069 7.14232V6.88862H382.355V7.14232C374.927 11.4783 370.83 19.6428 370.83 29.8369V137.59C370.83 154.934 376.199 168.587 386.058 178.528C397.328 189.875 414.338 196.517 435.443 196.771C474.739 197.163 500.195 174.192 500.195 140.657V29.8369C500.195 19.6428 496.099 11.4783 488.67 7.14232V6.88862H521.44V7.14232C514.011 11.4783 509.915 19.6428 509.915 29.8369V140.796C509.915 181.849 476.521 209.663 426.094 209.663C397.444 209.64 375.436 202.26 360.347 189.875ZM632.522 105.209C632.522 45.4047 680.241 0.5 743.72 0.5C769.431 0.5 792.088 7.64969 812.684 21.926C824.07 29.8368 829.323 35.8334 829.323 43.0984V77.9244H829.069C811.55 36.3408 779.799 10.4634 743.073 10.4634C700.722 10.4634 669.11 50.3865 669.11 105.209C669.11 159.8 700.722 199.585 744.345 199.585C779.545 199.585 812.8 173.823 834.438 131.109H834.692L829.948 167.319C829.046 174.215 824.07 180.465 812.684 188.353C792.088 202.629 769.431 209.64 743.72 209.64C679.478 209.387 632.522 164.759 632.522 105.209ZM944.872 105.209C944.872 45.4047 992.592 0.5 1056.07 0.5C1081.78 0.5 1104.44 7.64969 1125.03 21.926C1136.42 29.8368 1141.67 35.8334 1141.67 43.0984V77.9244H1141.42C1123.9 36.3408 1092.15 10.4634 1055.42 10.4634C1013.07 10.4634 981.46 50.3865 981.46 105.209C981.46 159.8 1013.07 199.585 1056.7 199.585C1091.89 199.585 1125.15 173.823 1146.79 131.109H1147.04L1142.3 167.319C1141.4 174.215 1136.42 180.465 1125.01 188.353C1104.41 202.629 1081.76 209.64 1056.05 209.64C991.851 209.387 944.872 164.759 944.872 105.209ZM1268.24 180.327V29.8369C1268.24 19.6428 1264.14 11.4783 1256.71 7.14232V6.88862H1312V7.14232C1304.57 11.4783 1300.48 19.6428 1300.48 29.8369V180.327C1300.48 190.521 1304.57 198.685 1312 203.021V203.275H1256.71V203.021C1264.14 198.685 1268.24 190.521 1268.24 180.327Z" fill="white"/>
</g>
</g>
<defs>
<clipPath id="clip0_1_34">
<rect width="1312" height="220" fill="white" transform="translate(0 0.5)"/>
</clipPath>
</defs>
</svg>
