<svg width="50" height="21" viewBox="0 0 50 21" fill="none" xmlns="http://www.w3.org/2000/svg">
<g opacity="0.7" clip-path="url(#clip0_1_424)">
<path d="M18.2794 6.0935C18.1831 5.93804 18.1239 5.72192 18.1239 5.51718C18.1239 5.31243 18.1757 5.12285 18.2646 4.95982L18.2757 4.94086C18.3645 4.75128 18.5681 4.62615 18.768 4.62615C18.8975 4.62615 19.0344 4.66407 19.1418 4.72474C19.338 4.84986 19.4897 5.03565 19.5786 5.25935V4.9219C19.5786 4.84607 19.4675 4.76265 19.4675 4.76265C19.2788 4.61857 19.0419 4.53516 18.7865 4.53516C18.6828 4.53516 18.5385 4.5617 18.5385 4.5617C18.1091 4.65649 17.7908 5.05081 17.7908 5.52476C17.7908 6.02904 18.1572 6.44232 18.6273 6.49541C18.6273 6.49541 18.7235 6.51057 18.7902 6.50678C19.0678 6.50678 19.3195 6.40441 19.5156 6.23758L19.5416 6.20725C19.5638 6.17312 19.5786 6.13521 19.5786 6.08971V5.80913C19.5786 5.72571 19.6193 5.65368 19.6785 5.60817H19.1714C19.2306 5.65368 19.2714 5.72571 19.2714 5.80913L19.2751 6.07075C19.2751 6.12383 19.2566 6.16933 19.2232 6.20346C19.1825 6.25274 19.0234 6.33616 19.0234 6.33616C18.9456 6.37787 18.8568 6.40441 18.7643 6.40441C18.557 6.39683 18.3719 6.27549 18.2794 6.0935Z" fill="white"/>
<path d="M23.4428 5.50962C23.4428 5.97978 23.7649 6.36652 24.1905 6.46131C24.1905 6.46131 24.3349 6.48785 24.4385 6.48785C24.6939 6.48785 24.9234 6.40444 25.1159 6.26036C25.1159 6.26036 25.2306 6.18452 25.2306 6.10869L25.275 5.74849C25.1455 6.08595 24.9234 6.21486 24.7938 6.29069C24.6865 6.34756 24.5495 6.38927 24.4163 6.38927C24.2164 6.38927 24.0165 6.27173 23.924 6.08215L23.9129 6.06319C23.8241 5.89636 23.7722 5.70679 23.7722 5.50583C23.7722 5.30488 23.8241 5.11151 23.9129 4.94847L23.924 4.92951C24.0129 4.73993 24.2164 4.61102 24.4163 4.61102C24.5458 4.61102 24.6828 4.64893 24.7938 4.7096C24.99 4.83472 25.1418 5.02051 25.2306 5.24421V4.90676C25.2306 4.83093 25.1196 4.74751 25.1196 4.74751C24.9271 4.60343 24.6939 4.52002 24.4385 4.52002C24.3349 4.52002 24.1905 4.54656 24.1905 4.54656C23.7612 4.64135 23.4428 5.03947 23.4428 5.50962Z" fill="white"/>
<path d="M26.3928 5.51364C26.3928 5.9838 26.7148 6.37054 27.1405 6.46533C27.1405 6.46533 27.2848 6.49187 27.3885 6.49187C27.6439 6.49187 27.8733 6.40846 28.0658 6.26438C28.0658 6.26438 28.1806 6.18855 28.1806 6.11271L28.225 5.75251C28.0954 6.08996 27.8733 6.21888 27.7438 6.29471C27.6365 6.35158 27.4958 6.39329 27.3663 6.39329C27.1664 6.39329 26.9665 6.27575 26.874 6.08617L26.8629 6.06721C26.774 5.90039 26.7222 5.71081 26.7222 5.50985C26.7222 5.30511 26.774 5.11553 26.8629 4.95249L26.874 4.93353C26.9628 4.74395 27.1664 4.61883 27.3663 4.61883C27.4958 4.61883 27.6328 4.65675 27.7438 4.71741C27.94 4.84253 28.0917 5.02832 28.1806 5.25202V4.91457C28.1806 4.83874 28.0695 4.75533 28.0695 4.75533C27.8808 4.61125 27.6439 4.52783 27.3885 4.52783C27.2848 4.52783 27.1405 4.55437 27.1405 4.55437C26.7111 4.64537 26.3928 5.0397 26.3928 5.51364Z" fill="white"/>
<path d="M29.7092 4.60742H29.2169C29.2761 4.65292 29.3168 4.72496 29.3168 4.80459V6.29468C29.3168 6.3743 29.2798 6.44634 29.2206 6.48805H29.7018C29.6426 6.44255 29.6056 6.3743 29.6056 6.29468V4.80459C29.6056 4.72496 29.6463 4.65292 29.7092 4.60742Z" fill="white"/>
<path d="M21.1886 4.60731H20.6963C20.7556 4.65281 20.7963 4.72485 20.7963 4.80826V5.9192C20.8148 6.12394 20.9369 6.29456 21.1072 6.37418C21.2478 6.44623 21.4033 6.48793 21.5699 6.48793C21.7401 6.48793 21.8993 6.45002 22.0399 6.37798H22.0436C22.2139 6.29835 22.336 6.12394 22.3545 5.9192V4.80068C22.3545 4.71726 22.3953 4.64901 22.4545 4.60352H22.1658C22.225 4.64901 22.2657 4.71726 22.2657 4.80068V5.92299V5.92678C22.2546 6.04811 22.1954 6.15807 22.1103 6.2339L22.1066 6.23769C22.0103 6.31731 21.8401 6.37418 21.6772 6.37418C21.5773 6.37418 21.481 6.35144 21.3922 6.31731L21.3848 6.31352C21.2256 6.25665 21.1109 6.10119 21.0924 5.92299V5.9192V4.80826C21.085 4.72485 21.1257 4.65281 21.1886 4.60731Z" fill="white"/>
<path d="M16.1584 8.28943C16.077 8.10745 15.966 7.95198 15.829 7.82308C15.6921 7.69415 15.5292 7.59558 15.3478 7.52354C15.1628 7.45529 14.974 7.42118 14.7704 7.42118C14.5705 7.42118 14.3781 7.45529 14.193 7.52354C14.0079 7.59179 13.8488 7.69037 13.7118 7.82308C13.5749 7.95198 13.4638 8.10745 13.3824 8.28943C13.301 8.47143 13.2603 8.6724 13.2603 8.89609C13.2603 9.11981 13.301 9.32075 13.3824 9.50275C13.4638 9.68473 13.5749 9.84019 13.7118 9.96912C13.8488 10.098 14.0116 10.1966 14.193 10.2686C14.3744 10.3407 14.5668 10.3748 14.7704 10.3748C14.9703 10.3748 15.1628 10.3407 15.3478 10.2686C15.5292 10.1966 15.6921 10.098 15.829 9.96912C15.966 9.84019 16.077 9.68473 16.1584 9.50275C16.2399 9.32075 16.2843 9.11981 16.2843 8.89609C16.2843 8.6724 16.2399 8.47143 16.1584 8.28943ZM15.7365 9.44207C15.681 9.60133 15.6032 9.73783 15.507 9.85158C15.4108 9.96152 15.2997 10.0487 15.1739 10.1094C15.048 10.1701 14.9148 10.2004 14.7741 10.2004C14.6335 10.2004 14.5002 10.1701 14.3744 10.1094C14.2485 10.0487 14.1375 9.96152 14.0412 9.85158C13.945 9.74162 13.8673 9.60511 13.8118 9.44207C13.7562 9.28282 13.7266 9.10084 13.7266 8.89609C13.7266 8.69133 13.7562 8.50936 13.8118 8.34632C13.8673 8.18328 13.945 8.04677 14.0412 7.93681C14.1375 7.82687 14.2485 7.73966 14.3744 7.67898C14.5002 7.61833 14.6335 7.588 14.7741 7.588C14.9148 7.588 15.048 7.61833 15.1739 7.67898C15.2997 7.73966 15.4108 7.82687 15.507 7.93681C15.6032 8.04677 15.681 8.18706 15.7365 8.34632C15.792 8.50936 15.8216 8.69133 15.8216 8.89609C15.8216 9.10084 15.792 9.28282 15.7365 9.44207ZM19.1751 9.11599C19.1048 9.00605 19.0122 8.91505 18.9049 8.83923C18.7975 8.76337 18.6791 8.70272 18.5532 8.64965C18.4274 8.59655 18.309 8.54347 18.2016 8.49039C18.0943 8.43732 18.0054 8.37285 17.9314 8.30082C17.8611 8.22878 17.8241 8.13778 17.8241 8.02402C17.8241 7.90648 17.8685 7.80412 17.9573 7.72069C18.0462 7.63729 18.1683 7.59179 18.3312 7.59179C18.4015 7.59179 18.4755 7.59937 18.5495 7.61833C18.6236 7.63729 18.6939 7.66762 18.7642 7.70554C18.8309 7.74723 18.8938 7.80033 18.953 7.86477C19.0122 7.93302 19.0603 8.01266 19.1011 8.11124L19.1233 8.09606L19.0826 7.63729C19.0085 7.56525 18.9086 7.50836 18.779 7.47046C18.6532 7.43254 18.5088 7.41357 18.3534 7.41357C18.2312 7.41357 18.1165 7.42875 18.0091 7.46286C17.9018 7.497 17.8093 7.5425 17.7278 7.60694C17.6464 7.6714 17.5835 7.75104 17.5391 7.84962C17.4909 7.9482 17.4687 8.06195 17.4687 8.19085C17.4687 8.33493 17.5057 8.45247 17.5761 8.54726C17.6464 8.64205 17.7352 8.72169 17.8426 8.78994C17.9499 8.85816 18.0647 8.91884 18.1868 8.96813C18.309 9.0212 18.4274 9.07809 18.531 9.13874C18.6384 9.19942 18.7272 9.26767 18.7975 9.34728C18.8679 9.42692 18.9049 9.5255 18.9049 9.64683C18.9049 9.82883 18.8494 9.96912 18.7383 10.0677C18.6273 10.1625 18.4829 10.2118 18.3052 10.2118C18.2312 10.2118 18.1535 10.2004 18.0721 10.1776C17.9906 10.1549 17.9129 10.117 17.8352 10.0639C17.7611 10.0146 17.6871 9.94637 17.6168 9.86673C17.5465 9.78333 17.4835 9.68473 17.428 9.56721L17.3947 9.57858L17.465 10.1018C17.5094 10.1435 17.565 10.1815 17.6279 10.2156C17.6908 10.2497 17.7611 10.2762 17.8352 10.299C17.9092 10.3217 17.9869 10.3407 18.0647 10.3521C18.1424 10.3634 18.2201 10.371 18.2942 10.371C18.4274 10.371 18.5532 10.3521 18.6717 10.3179C18.7901 10.2838 18.8938 10.2307 18.9863 10.1587C19.0788 10.0867 19.1492 10.0032 19.201 9.89706C19.2528 9.79469 19.2787 9.67337 19.2787 9.54065C19.2824 9.37003 19.2491 9.22596 19.1751 9.11599ZM22.6544 7.91406C22.6507 7.89891 22.6396 7.86856 22.6248 7.83066C22.61 7.79273 22.5989 7.74723 22.5841 7.70173C22.5693 7.65623 22.5581 7.61454 22.5434 7.57661C22.5322 7.53872 22.5248 7.51597 22.5248 7.50836H20.3447C20.3447 7.51597 20.3373 7.53872 20.3262 7.57661C20.3151 7.61454 20.3003 7.65623 20.2855 7.70173C20.2707 7.74723 20.2559 7.78894 20.2411 7.83066C20.2263 7.87237 20.2189 7.89891 20.2115 7.91787L20.2337 7.94062C20.3743 7.83444 20.5335 7.75862 20.7075 7.71312C20.8851 7.66762 21.0554 7.64865 21.2182 7.64865V8.89609V9.32453V9.64304C21.2182 9.73404 21.2182 9.81744 21.2145 9.88948C21.2145 9.96152 21.2109 10.0336 21.2071 10.1018C21.2034 10.1625 21.1886 10.208 21.1627 10.2307C21.1368 10.2535 21.1072 10.2724 21.0776 10.2876L21.0813 10.3028C21.0961 10.299 21.1183 10.299 21.1479 10.2952C21.1812 10.2914 21.2145 10.2914 21.2479 10.2876C21.2849 10.2876 21.3182 10.2838 21.3515 10.2838H21.4255H21.4996C21.5329 10.2838 21.5662 10.2838 21.5995 10.2876C21.6365 10.2876 21.6698 10.2914 21.6994 10.2952C21.7328 10.299 21.755 10.299 21.766 10.3028L21.7698 10.2876C21.7438 10.2724 21.7142 10.2535 21.6883 10.2307C21.6624 10.208 21.6439 10.1663 21.6439 10.1018C21.6402 10.0336 21.6402 9.96531 21.6365 9.88948C21.6365 9.81744 21.6328 9.73404 21.6328 9.64304V9.32453V8.89609V7.64865C21.7994 7.64865 21.9696 7.6714 22.1436 7.71312C22.3176 7.75483 22.4767 7.83066 22.6174 7.93681L22.6544 7.91406ZM25.6266 9.87433C25.5452 9.93498 25.4489 9.98806 25.3379 10.026C25.2306 10.0639 25.1121 10.0942 24.9863 10.1132C24.8604 10.1321 24.7309 10.1473 24.5939 10.1511C24.457 10.1587 24.32 10.1587 24.1794 10.1549C24.1757 10.0867 24.1757 10.0146 24.172 9.93877C24.172 9.86294 24.1683 9.77573 24.1683 9.68094V9.35107V8.9302V8.92263C24.3718 8.92263 24.5347 8.92641 24.6568 8.9302C24.779 8.93402 24.8752 8.94538 24.9419 8.96055C25.0085 8.9757 25.0529 8.99845 25.0788 9.0288C25.1047 9.05913 25.1232 9.09706 25.1343 9.14253L25.1565 9.13496C25.1528 9.08567 25.1454 9.04395 25.1454 9.00227C25.1417 8.96055 25.1417 8.91126 25.1417 8.85437C25.1417 8.79751 25.1417 8.74822 25.1454 8.7103C25.1491 8.6724 25.1528 8.6269 25.1565 8.57379L25.1343 8.56622C25.1232 8.60793 25.1047 8.64205 25.0788 8.6724C25.0529 8.69894 25.0085 8.72169 24.9419 8.74062C24.8752 8.7558 24.7827 8.77097 24.6568 8.77476C24.5347 8.78234 24.3718 8.78612 24.1683 8.78994V8.42593V8.15295C24.1683 8.06952 24.1683 7.98991 24.172 7.91027C24.172 7.83066 24.1757 7.73966 24.1794 7.6335C24.3052 7.6259 24.4274 7.62212 24.5421 7.6259C24.6568 7.62969 24.7679 7.64108 24.8752 7.66004C24.9826 7.68279 25.0825 7.71312 25.1787 7.75862C25.275 7.80412 25.3638 7.86098 25.4452 7.93681L25.4675 7.91027C25.46 7.89131 25.4489 7.86098 25.4341 7.82308C25.4193 7.78516 25.4045 7.74344 25.3897 7.70173C25.3749 7.66004 25.3601 7.61833 25.349 7.58419C25.3379 7.54629 25.3342 7.51975 25.3342 7.50458H23.9536C23.9388 7.50458 23.9128 7.50458 23.8796 7.50079C23.8462 7.50079 23.8129 7.497 23.7796 7.497C23.7463 7.497 23.713 7.49321 23.6797 7.4894C23.6464 7.48561 23.6242 7.48561 23.613 7.48183L23.6094 7.50458C23.6353 7.51975 23.6649 7.53872 23.6908 7.56147C23.7167 7.58419 23.7352 7.6259 23.7352 7.68658C23.7389 7.75483 23.7389 7.82308 23.7426 7.89512C23.7426 7.96716 23.7463 8.05056 23.7463 8.14156V8.46386V8.8923V9.31696V9.63544C23.7463 9.73023 23.7463 9.81366 23.7426 9.88569C23.7426 9.95773 23.7389 10.0298 23.7352 10.098C23.7315 10.1587 23.7167 10.2042 23.6908 10.2269C23.6649 10.2497 23.6353 10.2686 23.6094 10.2838L23.613 10.299C23.6279 10.2952 23.6501 10.2952 23.6797 10.2914C23.713 10.2876 23.7426 10.2876 23.7796 10.2838C23.8129 10.2838 23.8462 10.28 23.8796 10.28H23.9536H25.4748C25.4748 10.2686 25.4823 10.2459 25.5008 10.2042C25.5193 10.1663 25.5378 10.1246 25.5563 10.0828C25.5785 10.0412 25.597 9.99945 25.6155 9.96152C25.634 9.92362 25.6451 9.89706 25.6525 9.88569L25.6266 9.87433ZM28.7062 10.2307C28.6469 10.2497 28.5914 10.2383 28.5359 10.189C28.4804 10.1435 28.4212 10.0791 28.3656 9.99566C28.3064 9.91223 28.2509 9.82123 28.1917 9.71508C28.1325 9.6089 28.0695 9.50654 28.0066 9.40796C27.94 9.30938 27.8733 9.21838 27.803 9.13874C27.7327 9.05913 27.655 9.00227 27.5698 8.97191C27.6809 8.95295 27.7882 8.92263 27.8882 8.88091C27.9881 8.83923 28.0732 8.78612 28.1472 8.72547C28.2213 8.66101 28.2805 8.58518 28.3249 8.49797C28.3693 8.41075 28.3915 8.30839 28.3915 8.19464C28.3915 8.09985 28.3693 8.00885 28.3286 7.92545C28.2879 7.84202 28.2213 7.76619 28.1325 7.70173C28.0436 7.63729 27.9326 7.588 27.7993 7.55008C27.6661 7.51215 27.5032 7.49321 27.3107 7.49321H27.1812C27.1146 7.49321 27.0405 7.49321 26.9628 7.497C26.8851 7.497 26.811 7.50079 26.7444 7.50079C26.6778 7.50079 26.6371 7.50458 26.6186 7.50836L26.6223 7.52733C26.6519 7.53111 26.6815 7.5425 26.7037 7.56525C26.7296 7.588 26.7407 7.62969 26.7444 7.69037C26.7481 7.75862 26.7481 7.82687 26.7518 7.89891C26.7518 7.97095 26.7555 8.05435 26.7555 8.14535V8.46764V8.89609V9.32453V9.64304C26.7555 9.73404 26.7555 9.81744 26.7518 9.88948C26.7518 9.96152 26.7481 10.0336 26.7444 10.1018C26.7407 10.1625 26.7259 10.208 26.7 10.2307C26.6741 10.2535 26.6445 10.2724 26.6186 10.2876L26.6223 10.3028C26.6371 10.299 26.6593 10.299 26.6926 10.2952C26.7259 10.2914 26.7592 10.2914 26.7962 10.2876C26.8332 10.2876 26.8666 10.2838 26.8999 10.2838H26.9739H27.0479C27.0812 10.2838 27.1146 10.2838 27.1479 10.2876C27.1812 10.2876 27.2145 10.2914 27.2478 10.2952C27.2811 10.299 27.3033 10.299 27.3144 10.3028L27.3181 10.2876C27.2885 10.2724 27.2589 10.2535 27.233 10.2307C27.2071 10.208 27.1923 10.1663 27.1886 10.1018C27.1849 10.0412 27.1849 9.98048 27.1812 9.92741C27.1812 9.87052 27.1775 9.80987 27.1775 9.74162V9.51032V9.19185V8.99467H27.2885C27.3589 9.00984 27.4181 9.05155 27.4662 9.12359C27.5143 9.19563 27.555 9.28282 27.5957 9.38142C27.6328 9.48 27.6735 9.58615 27.7105 9.69612C27.7475 9.80608 27.7956 9.90844 27.8548 9.99945C27.9104 10.0942 27.9807 10.1701 28.0695 10.2307C28.1547 10.2914 28.2657 10.3255 28.3952 10.3255C28.4434 10.3255 28.4952 10.3217 28.5581 10.3141C28.6173 10.3066 28.6691 10.2876 28.7062 10.2573V10.2307ZM27.877 8.51693C27.8326 8.60415 27.7734 8.6724 27.6994 8.72169C27.6253 8.77097 27.5439 8.80509 27.4551 8.82026C27.3626 8.83923 27.2737 8.84301 27.1849 8.83162V8.11881C27.1849 7.92166 27.1886 7.76241 27.1923 7.6335C27.2848 7.6335 27.3736 7.64108 27.4625 7.65626C27.5513 7.6714 27.6328 7.69794 27.7031 7.73966C27.7734 7.78137 27.8326 7.83823 27.877 7.91027C27.9215 7.98231 27.9437 8.0771 27.9437 8.19464C27.9437 8.32357 27.9215 8.4335 27.877 8.51693ZM30.4088 10.2876C30.3792 10.2724 30.3496 10.2535 30.3237 10.2307C30.2978 10.208 30.283 10.1663 30.2793 10.1018C30.2755 10.0336 30.2755 9.96531 30.2718 9.88948C30.2718 9.81744 30.2681 9.73404 30.2681 9.63925V9.32075V8.89609V8.46764V8.14535C30.2681 8.05056 30.2681 7.97095 30.2718 7.89891C30.2718 7.82687 30.2755 7.75862 30.2793 7.69037C30.283 7.62969 30.2978 7.58419 30.3237 7.56147C30.3496 7.53872 30.3792 7.51975 30.4088 7.50458L30.4051 7.4894C30.3903 7.49321 30.3681 7.49321 30.3385 7.497C30.3052 7.50079 30.2718 7.50079 30.2385 7.50458C30.2015 7.50458 30.1682 7.50836 30.1386 7.50836C30.1053 7.50836 30.0831 7.51215 30.0646 7.51215H29.9906C29.9572 7.51215 29.9239 7.51215 29.8906 7.50836C29.8573 7.50458 29.824 7.50458 29.7907 7.50079C29.7574 7.50079 29.7351 7.497 29.7166 7.4894L29.7129 7.50458C29.7389 7.51975 29.7685 7.53872 29.7944 7.56147C29.8203 7.58419 29.8388 7.62969 29.8388 7.69037C29.8425 7.75862 29.8425 7.82687 29.8462 7.89891C29.8462 7.97095 29.8499 8.05435 29.8499 8.14535V8.46764V8.89609V9.32075V9.63925C29.8499 9.73404 29.8499 9.81744 29.8462 9.88948C29.8462 9.96152 29.8425 10.0336 29.8388 10.1018C29.8351 10.1625 29.8203 10.208 29.7944 10.2307C29.7685 10.2535 29.7389 10.2724 29.7129 10.2876L29.7166 10.3028C29.7314 10.299 29.7574 10.299 29.7907 10.2952C29.824 10.2914 29.8536 10.2914 29.8906 10.2876C29.9239 10.2876 29.9572 10.2838 29.9906 10.2838H30.0646C30.0794 10.2838 30.1053 10.2838 30.1386 10.2876C30.1719 10.2876 30.2052 10.2914 30.2385 10.2914C30.2755 10.2914 30.3089 10.2952 30.3385 10.2952C30.3718 10.2952 30.394 10.299 30.4051 10.3028L30.4088 10.2876ZM34.2397 10.2876C34.2027 10.2724 34.1583 10.2421 34.1102 10.2004C34.0621 10.1549 34.0251 10.1018 33.9955 10.0412C33.9621 9.97291 33.9288 9.90844 33.8992 9.84398C33.8659 9.77952 33.8326 9.70748 33.7956 9.62786C33.7586 9.54825 33.7141 9.45346 33.6623 9.3435C33.6105 9.23353 33.5476 9.10084 33.4736 8.9378C33.3995 8.77855 33.3292 8.62308 33.2626 8.47522C33.1959 8.32735 33.133 8.19085 33.0775 8.06195C33.022 7.93302 32.9702 7.81927 32.9257 7.72069C32.8813 7.61833 32.8443 7.5349 32.8184 7.46665H32.7592C32.7333 7.5349 32.6963 7.61833 32.6518 7.72069C32.6074 7.82308 32.5556 7.93681 32.5001 8.06195C32.4446 8.18706 32.3816 8.32735 32.3113 8.47522C32.241 8.62308 32.1707 8.77855 32.0967 8.9378C32.0226 9.09706 31.9597 9.23735 31.9079 9.34728C31.856 9.46104 31.8079 9.55961 31.7672 9.64304C31.7265 9.72644 31.6895 9.80227 31.6562 9.87052C31.6229 9.93498 31.5895 10.0032 31.5562 10.0715C31.497 10.189 31.4193 10.2611 31.3341 10.2876L31.3378 10.3028C31.3749 10.299 31.4193 10.2914 31.4674 10.2914C31.5155 10.2914 31.5599 10.2876 31.597 10.2876C31.6377 10.2876 31.6858 10.2876 31.7413 10.2914C31.7968 10.2952 31.8412 10.299 31.8782 10.3028L31.882 10.2876C31.8672 10.2838 31.8523 10.2762 31.8338 10.2649C31.8153 10.2573 31.7968 10.2459 31.7857 10.2307C31.7709 10.2156 31.7635 10.2004 31.7561 10.1815C31.7524 10.1625 31.7561 10.1359 31.7672 10.1056C31.7857 10.0563 31.8042 10.0108 31.8227 9.96531C31.8412 9.91981 31.8597 9.87052 31.882 9.81366C31.9042 9.76058 31.9227 9.70369 31.9486 9.64304C31.9708 9.58236 32.0004 9.51411 32.03 9.43829H33.2478C33.3181 9.58994 33.3773 9.71508 33.4217 9.81366C33.4661 9.91223 33.5106 10.0108 33.5476 10.1056C33.5587 10.1359 33.5624 10.1625 33.5587 10.1815C33.555 10.2004 33.5439 10.2193 33.5328 10.2307C33.518 10.2459 33.5032 10.2573 33.4846 10.2649C33.4661 10.2724 33.4514 10.28 33.4365 10.2876L33.4402 10.3028C33.4551 10.299 33.4846 10.299 33.5254 10.2952C33.5661 10.2914 33.6068 10.2914 33.6512 10.2876C33.6956 10.2876 33.7363 10.2838 33.7771 10.2838H33.8696H33.9473C33.9806 10.2838 34.014 10.2838 34.051 10.2876C34.088 10.2876 34.125 10.2914 34.1583 10.2952C34.1916 10.299 34.2175 10.299 34.236 10.3028L34.2397 10.2876ZM32.0818 9.29042L32.2336 8.94159C32.2928 8.80887 32.3409 8.69894 32.3779 8.61551C32.415 8.53211 32.4446 8.45626 32.4705 8.39561C32.4964 8.33493 32.5223 8.27807 32.5445 8.22499C32.5667 8.17189 32.5926 8.11124 32.6259 8.0392C32.6593 8.11124 32.6852 8.1681 32.7037 8.20981C32.7222 8.25153 32.7407 8.30082 32.7666 8.35768C32.7888 8.41078 32.8221 8.48282 32.8591 8.57001C32.8961 8.65722 32.9517 8.77855 33.022 8.9378L33.1774 9.29421H32.0818V9.29042Z" fill="white"/>
<path d="M19.5489 12.7564C19.4601 12.7564 19.2898 12.9953 19.2898 13.1128C19.2898 13.147 19.3046 13.1697 19.3453 13.1697C19.4416 13.1697 19.5896 12.9005 19.5896 12.8057C19.5859 12.7716 19.5711 12.7564 19.5489 12.7564ZM19.5822 13.0749C19.5563 13.147 19.5637 13.1583 19.5822 13.1583C19.6081 13.1583 19.697 13.0673 19.7081 13.0673C19.7118 13.0673 19.7118 13.0711 19.7118 13.0749C19.7007 13.0977 19.5785 13.2342 19.523 13.2342C19.4786 13.2342 19.4786 13.1887 19.5156 13.0863L19.5452 13.0067C19.5452 13.0029 19.5341 12.9991 19.5341 13.0029C19.4601 13.1546 19.3786 13.238 19.2935 13.238C19.2417 13.238 19.201 13.1963 19.201 13.1356C19.201 12.9915 19.3897 12.7375 19.5415 12.7375C19.5748 12.7375 19.597 12.7564 19.6044 12.7868C19.6452 12.6882 19.6784 12.5972 19.7303 12.4455C19.7488 12.3924 19.7266 12.3659 19.6452 12.3659C19.634 12.3659 19.6377 12.3545 19.6414 12.3545C19.7007 12.347 19.8265 12.3394 19.8376 12.3394C19.845 12.3394 19.8487 12.347 19.845 12.3621C19.7303 12.6541 19.634 12.9195 19.5822 13.0749Z" fill="white"/>
<path d="M20.1115 12.7453C20.0153 12.7453 19.8709 12.9993 19.8709 13.1055C19.8709 13.1472 19.8857 13.1661 19.9116 13.1661C19.9339 13.1661 19.9635 13.1472 19.9968 13.1131C20.0745 13.0183 20.1523 12.8287 20.1523 12.7908C20.1559 12.768 20.1411 12.7453 20.1115 12.7453ZM20.13 13.0789C20.1078 13.1434 20.1152 13.1586 20.1337 13.1586C20.1671 13.1586 20.2263 13.0752 20.2374 13.0752C20.2411 13.0752 20.2411 13.0789 20.2411 13.0827C20.2041 13.1548 20.1226 13.2344 20.0745 13.2344C20.0523 13.2344 20.0412 13.223 20.0412 13.2003C20.0412 13.1775 20.0486 13.151 20.0597 13.1131L20.0819 13.0372C20.0819 13.0334 20.0708 13.0297 20.0708 13.0334C20.0005 13.1586 19.9302 13.2344 19.8672 13.2344C19.8265 13.2344 19.7858 13.2003 19.7858 13.1434C19.7858 12.9766 19.9746 12.7339 20.1078 12.7339C20.13 12.7339 20.1559 12.7415 20.1671 12.7491C20.1745 12.7529 20.1745 12.7567 20.1782 12.7491C20.193 12.7301 20.2078 12.7074 20.2152 12.696C20.2226 12.6846 20.2707 12.6998 20.267 12.7074L20.13 13.0789Z" fill="white"/>
<path d="M21.5884 12.4228C21.5514 12.4493 21.5403 12.4721 21.5033 12.8058C21.4625 13.1546 21.4625 13.1849 21.47 13.1925C21.4848 13.2001 21.5144 13.2001 21.544 13.2077C21.5514 13.2114 21.5514 13.2228 21.544 13.2228C21.5144 13.2191 21.4625 13.2191 21.4033 13.2191C21.3404 13.2191 21.2886 13.2191 21.259 13.2228C21.2516 13.2228 21.2479 13.2114 21.259 13.2077C21.2886 13.2001 21.3219 13.2001 21.3367 13.1925C21.3626 13.1773 21.3737 13.1508 21.4181 12.802C21.4292 12.6958 21.4477 12.6048 21.4551 12.5327C21.4551 12.529 21.4477 12.529 21.444 12.529C21.3478 12.6844 21.1627 12.984 21.0147 13.2342C21.011 13.2418 20.9925 13.2418 20.9925 13.2342C20.974 12.9726 20.9481 12.6769 20.9295 12.5366C20.9295 12.5327 20.9221 12.5327 20.9184 12.5366C20.8888 12.6086 20.8518 12.6958 20.8111 12.8058C20.6742 13.1584 20.6704 13.1849 20.6815 13.1925C20.6927 13.2001 20.7186 13.2001 20.7445 13.2077C20.7519 13.2114 20.7482 13.2228 20.7445 13.2228C20.7149 13.2191 20.6852 13.2191 20.626 13.2191C20.5631 13.2191 20.5335 13.2191 20.5002 13.2228C20.4928 13.2228 20.4928 13.2114 20.5002 13.2077C20.5298 13.2001 20.5668 13.2001 20.5853 13.1925C20.6223 13.1773 20.6334 13.1546 20.7741 12.8058C20.9073 12.4759 20.9036 12.4493 20.8814 12.4266C20.8703 12.4152 20.837 12.4076 20.7963 12.4038C20.7889 12.4038 20.7926 12.3887 20.7963 12.3887C20.8185 12.3925 20.8925 12.3963 20.9369 12.3963C20.9776 12.3963 20.9814 12.3925 21.0036 12.3925C21.0073 12.3925 21.011 12.3963 21.011 12.4001C21.0184 12.5252 21.0443 12.8475 21.0628 13.0825C21.0628 13.0863 21.0702 13.0863 21.0702 13.0825C21.1998 12.8778 21.3737 12.5859 21.4773 12.4038C21.481 12.4001 21.481 12.3963 21.4848 12.3963C21.507 12.4001 21.5218 12.4001 21.5625 12.4001C21.6069 12.4001 21.6476 12.3963 21.6735 12.3925C21.6809 12.3925 21.6846 12.4076 21.6735 12.4076C21.6291 12.4076 21.5958 12.4152 21.5884 12.4228Z" fill="white"/>
<path d="M21.9881 12.7453C21.8919 12.7453 21.7475 12.9993 21.7475 13.1055C21.7475 13.1472 21.7623 13.1661 21.7883 13.1661C21.8105 13.1661 21.8438 13.1472 21.8734 13.1131C21.9511 13.0183 22.0288 12.8287 22.0288 12.7908C22.0325 12.768 22.0177 12.7453 21.9881 12.7453ZM22.0103 13.0789C21.9881 13.1434 21.9955 13.1586 22.014 13.1586C22.0473 13.1586 22.1066 13.0752 22.1177 13.0752C22.1214 13.0752 22.1214 13.0789 22.1214 13.0827C22.0844 13.1548 22.0029 13.2344 21.9548 13.2344C21.9326 13.2344 21.9215 13.223 21.9215 13.2003C21.9215 13.1775 21.9289 13.151 21.94 13.1131L21.9622 13.0372C21.9622 13.0334 21.9511 13.0297 21.9511 13.0334C21.8808 13.1586 21.8105 13.2344 21.7475 13.2344C21.7068 13.2344 21.6661 13.2003 21.6661 13.1434C21.6661 12.9766 21.8549 12.7339 21.9881 12.7339C22.0103 12.7339 22.0362 12.7415 22.0473 12.7491C22.0547 12.7529 22.0547 12.7567 22.0585 12.7491C22.0732 12.7301 22.0881 12.7074 22.0955 12.696C22.1029 12.6846 22.151 12.6998 22.1473 12.7074L22.0103 13.0789Z" fill="white"/>
<path d="M22.5026 12.8287C22.4545 12.8287 22.4582 12.7491 22.4027 12.7491C22.373 12.7491 22.3397 12.787 22.3397 12.8173C22.3397 12.8818 22.4508 13.0107 22.4508 13.0941C22.4508 13.1662 22.3842 13.2344 22.2916 13.2344C22.2213 13.2344 22.1732 13.1813 22.1732 13.151C22.1732 13.1283 22.188 13.1093 22.2139 13.1093C22.2731 13.1093 22.2509 13.2117 22.3323 13.2117C22.3656 13.2117 22.3916 13.1662 22.3916 13.132C22.3916 13.0638 22.2879 12.9652 22.2879 12.8704C22.2879 12.7946 22.3619 12.7188 22.4471 12.7188C22.4952 12.7188 22.5433 12.7567 22.5433 12.7908C22.5433 12.806 22.5248 12.8287 22.5026 12.8287Z" fill="white"/>
<path d="M22.869 12.8287C22.8209 12.8287 22.8246 12.7491 22.7691 12.7491C22.7395 12.7491 22.7062 12.787 22.7062 12.8173C22.7062 12.8818 22.8172 13.0107 22.8172 13.0941C22.8172 13.1662 22.7506 13.2344 22.6581 13.2344C22.5877 13.2344 22.5396 13.1813 22.5396 13.151C22.5396 13.1283 22.5544 13.1093 22.5803 13.1093C22.6396 13.1093 22.6173 13.2117 22.6988 13.2117C22.7321 13.2117 22.758 13.1662 22.758 13.132C22.758 13.0638 22.6544 12.9652 22.6544 12.8704C22.6544 12.7946 22.7284 12.7188 22.8135 12.7188C22.8616 12.7188 22.9098 12.7567 22.9098 12.7908C22.9098 12.806 22.8913 12.8287 22.869 12.8287Z" fill="white"/>
<path d="M23.2022 12.5743C23.1763 12.5743 23.1652 12.5553 23.1652 12.5364C23.1652 12.506 23.1911 12.4644 23.2281 12.4644C23.2503 12.4644 23.2652 12.4833 23.2652 12.5023C23.2652 12.5326 23.2393 12.5743 23.2022 12.5743ZM23.0135 13.2302C22.9653 13.2302 22.9579 13.1847 22.9838 13.1241L23.1023 12.8587C23.1282 12.8056 23.1245 12.779 23.0986 12.779C23.0727 12.779 23.0172 12.8321 22.9838 12.8814C22.9801 12.8852 22.9764 12.8814 22.9764 12.8776C22.9986 12.8094 23.0949 12.7146 23.1578 12.7146C23.2207 12.7146 23.2207 12.7866 23.1652 12.9004L23.0727 13.09C23.0468 13.143 23.0579 13.1544 23.0801 13.1544C23.106 13.1544 23.1911 13.071 23.2022 13.071C23.2059 13.071 23.2096 13.0748 23.2059 13.0786C23.1985 13.1013 23.0764 13.2302 23.0135 13.2302Z" fill="white"/>
<path d="M23.8352 13.2306C23.7944 13.2306 23.7796 13.2003 23.8055 13.1245L23.8944 12.8894C23.9314 12.7946 23.924 12.7794 23.9092 12.7794C23.8574 12.7794 23.7574 12.9387 23.6094 13.2155C23.6057 13.2231 23.5835 13.2231 23.5687 13.2231C23.5501 13.2231 23.5353 13.2192 23.5353 13.2155L23.6686 12.8553C23.6834 12.8098 23.6982 12.7757 23.676 12.7757C23.6205 12.7757 23.5242 12.9349 23.3762 13.2155C23.3725 13.2231 23.354 13.2231 23.3355 13.2231C23.317 13.2231 23.2985 13.2192 23.3021 13.2155L23.4317 12.8591C23.4502 12.806 23.4539 12.7794 23.4354 12.7794C23.3984 12.7794 23.3577 12.8136 23.3133 12.878C23.3095 12.8818 23.3058 12.878 23.3058 12.8742C23.328 12.806 23.4243 12.715 23.4835 12.715C23.502 12.715 23.5205 12.7377 23.5205 12.7643C23.5205 12.8212 23.4835 12.9273 23.4095 13.1017C23.4095 13.1055 23.4206 13.1093 23.4206 13.1055C23.565 12.8249 23.6464 12.7036 23.7167 12.7036C23.7389 12.7036 23.7574 12.7264 23.7574 12.7605C23.7574 12.8212 23.7204 12.9235 23.6427 13.0979C23.639 13.1017 23.6538 13.1055 23.6538 13.1017C23.7944 12.8212 23.8907 12.7112 23.9536 12.7112C24.0239 12.7112 24.0054 12.7984 23.9684 12.897L23.8944 13.0866C23.8722 13.1396 23.8833 13.151 23.9018 13.151C23.924 13.151 24.0128 13.0676 24.0239 13.0676C24.0276 13.0676 24.0276 13.0714 24.0276 13.0752C24.0165 13.1017 23.8981 13.2306 23.8352 13.2306Z" fill="white"/>
<path d="M24.3755 12.7337C24.2941 12.7337 24.1868 13.0029 24.1868 13.128C24.1868 13.1811 24.209 13.2114 24.2497 13.2114C24.3311 13.2114 24.4422 12.9422 24.4422 12.8171C24.4385 12.764 24.4163 12.7337 24.3755 12.7337ZM24.2423 13.2304C24.1683 13.2304 24.1165 13.1773 24.1165 13.0673C24.1165 12.9308 24.2238 12.7109 24.3829 12.7109C24.457 12.7109 24.5088 12.764 24.5088 12.874C24.5088 13.0143 24.4014 13.2304 24.2423 13.2304Z" fill="white"/>
<path d="M25.2972 12.4152C25.2639 12.4152 25.2417 12.4228 25.2269 12.4304C25.2158 12.4342 25.2047 12.4531 25.1233 12.7413C25.1196 12.7489 25.1196 12.7565 25.1269 12.7565C25.1418 12.7603 25.1455 12.7603 25.2121 12.7603C25.3676 12.7603 25.4342 12.6314 25.4342 12.529C25.4342 12.4683 25.3971 12.4152 25.2972 12.4152ZM25.2047 12.7906C25.1381 12.7906 25.1344 12.7906 25.1196 12.7944C25.1121 12.7982 25.1084 12.802 25.1047 12.8095C25.0233 13.0977 25.0122 13.1546 25.027 13.1697C25.0418 13.1887 25.064 13.1925 25.1455 13.1925C25.2861 13.1925 25.3935 13.0788 25.3935 12.9498C25.3935 12.8626 25.3194 12.7906 25.2047 12.7906ZM25.3009 12.7716C25.2972 12.7716 25.2935 12.7792 25.2972 12.783C25.4416 12.8058 25.4934 12.8892 25.4934 12.9688C25.4934 13.0939 25.3527 13.2228 25.1269 13.2228C25.0974 13.2228 25.0566 13.2191 24.9974 13.2191C24.9345 13.2191 24.8419 13.2191 24.8123 13.2228C24.8049 13.2228 24.8012 13.2114 24.8123 13.2077C24.8419 13.2001 24.879 13.2001 24.8938 13.1925C24.9049 13.1887 24.9197 13.1546 25.0159 12.8058C25.1121 12.4531 25.1196 12.4228 25.1084 12.419C25.0974 12.4114 25.064 12.4114 25.0381 12.4038C25.0307 12.4001 25.0307 12.3887 25.0381 12.3887C25.0677 12.3925 25.1566 12.3963 25.2158 12.3963C25.275 12.3963 25.2935 12.3887 25.3231 12.3887C25.4453 12.3887 25.5267 12.4607 25.5267 12.5517C25.5304 12.6465 25.4453 12.7375 25.3009 12.7716Z" fill="white"/>
<path d="M25.8746 12.7337C25.7932 12.7337 25.6858 13.0029 25.6858 13.128C25.6858 13.1811 25.708 13.2114 25.7488 13.2114C25.8302 13.2114 25.9412 12.9422 25.9412 12.8171C25.9375 12.764 25.9153 12.7337 25.8746 12.7337ZM25.7414 13.2304C25.6673 13.2304 25.6155 13.1773 25.6155 13.0673C25.6155 12.9308 25.7229 12.7109 25.882 12.7109C25.956 12.7109 26.0079 12.764 26.0079 12.874C26.0079 13.0143 25.9005 13.2304 25.7414 13.2304Z" fill="white"/>
<path d="M26.4187 12.7755C26.378 12.7718 26.378 12.7718 26.3076 12.7718C26.2669 12.8779 26.2188 13.0106 26.1892 13.0978C26.1707 13.1471 26.1855 13.1661 26.2003 13.1661C26.241 13.1661 26.3261 13.0523 26.3372 13.0523C26.341 13.0523 26.3447 13.0561 26.341 13.0599C26.3039 13.1168 26.2188 13.2343 26.1448 13.2343C26.1189 13.2343 26.0708 13.2078 26.104 13.1282C26.1448 13.0182 26.1929 12.8817 26.2299 12.7718C26.1855 12.7718 26.1744 12.7755 26.1411 12.7755C26.13 12.7755 26.13 12.7414 26.1448 12.7414C26.1781 12.7452 26.1966 12.7452 26.241 12.7452C26.2558 12.7035 26.2669 12.6694 26.2743 12.6429C26.278 12.6353 26.2854 12.6353 26.2891 12.6353C26.3076 12.6353 26.3595 12.6428 26.3557 12.6542C26.3483 12.677 26.3335 12.7073 26.3187 12.7414C26.3854 12.7414 26.3854 12.7414 26.4224 12.7376C26.4335 12.7414 26.4335 12.7755 26.4187 12.7755Z" fill="white"/>
<path d="M26.7962 12.7755C26.7555 12.7718 26.7555 12.7718 26.6852 12.7718C26.6445 12.8779 26.5964 13.0106 26.5667 13.0978C26.5482 13.1471 26.5631 13.1661 26.5779 13.1661C26.6186 13.1661 26.7074 13.0523 26.7148 13.0523C26.7185 13.0523 26.7222 13.0561 26.7185 13.0599C26.6815 13.1168 26.5964 13.2343 26.5223 13.2343C26.4964 13.2343 26.4483 13.2078 26.4816 13.1282C26.5223 13.0182 26.5705 12.8817 26.6075 12.7718C26.5631 12.7718 26.552 12.7755 26.5186 12.7755C26.5075 12.7755 26.5075 12.7414 26.5223 12.7414C26.5557 12.7452 26.5742 12.7452 26.6186 12.7452C26.6334 12.7035 26.6445 12.6694 26.6519 12.6429C26.6556 12.6353 26.663 12.6353 26.6667 12.6353C26.6852 12.6353 26.737 12.6428 26.7333 12.6542C26.7259 12.677 26.7111 12.7073 26.6963 12.7414C26.7629 12.7414 26.7592 12.7414 26.7999 12.7376C26.811 12.7414 26.811 12.7755 26.7962 12.7755Z" fill="white"/>
<path d="M27.1923 13.0865C27.1701 13.1472 27.1812 13.1548 27.196 13.1548C27.2219 13.1548 27.3034 13.0714 27.3145 13.0714C27.3182 13.0714 27.3182 13.0752 27.3182 13.079C27.3071 13.1017 27.196 13.2306 27.1331 13.2306C27.0813 13.2306 27.0813 13.1699 27.196 12.9121C27.196 12.9083 27.1886 12.9045 27.1849 12.9083C27.0961 13.0638 26.9998 13.2306 26.9036 13.2306C26.8703 13.2306 26.8444 13.2154 26.8444 13.1738C26.8444 13.1472 26.8555 13.1093 26.8814 13.0486L26.9665 12.859C26.9924 12.806 26.9924 12.7794 26.9665 12.7794C26.9295 12.7794 26.8851 12.8325 26.8666 12.8439C26.8629 12.8439 26.8592 12.8401 26.8592 12.8363C26.8999 12.787 26.9554 12.7188 27.0184 12.7188C27.0628 12.7188 27.0776 12.7719 27.0406 12.859L26.9517 13.0638C26.9184 13.1472 26.9221 13.1738 26.948 13.1738C27.0035 13.1738 27.1294 13.0107 27.2478 12.7301C27.2515 12.7264 27.2589 12.7264 27.2664 12.7264C27.2886 12.7264 27.3219 12.7339 27.3182 12.7453L27.1923 13.0865Z" fill="white"/>
<path d="M27.7846 12.8401C27.7364 12.8401 27.7586 12.7794 27.729 12.7794C27.6957 12.7794 27.6439 12.8477 27.4884 13.2155C27.4847 13.2231 27.4625 13.2268 27.4477 13.2268C27.4292 13.2268 27.4107 13.2268 27.4144 13.2155C27.4847 13.0183 27.5329 12.8667 27.5329 12.8249C27.5329 12.8022 27.5254 12.7908 27.5144 12.7908C27.4773 12.7908 27.4329 12.878 27.4255 12.8818C27.4218 12.8818 27.4181 12.8818 27.4181 12.878C27.4477 12.8136 27.5069 12.7112 27.5662 12.7112C27.5995 12.7112 27.6069 12.7491 27.6069 12.7832C27.6069 12.8287 27.5884 12.897 27.5477 13.0221C27.5439 13.0259 27.5588 13.0297 27.5588 13.0259C27.6476 12.806 27.7142 12.7036 27.7809 12.7036C27.8179 12.7036 27.8401 12.7339 27.8401 12.7681C27.8364 12.8098 27.8141 12.8401 27.7846 12.8401Z" fill="white"/>
<path d="M28.1399 12.7453C28.0436 12.7453 27.8993 12.9993 27.8993 13.1055C27.8993 13.1472 27.9141 13.1661 27.94 13.1661C27.9622 13.1661 27.9918 13.1472 28.0251 13.1131C28.1028 13.0183 28.1806 12.8287 28.1806 12.7908C28.1843 12.768 28.1695 12.7453 28.1399 12.7453ZM28.1584 13.0789C28.1362 13.1434 28.1436 13.1586 28.1621 13.1586C28.1954 13.1586 28.2546 13.0752 28.2657 13.0752C28.2694 13.0752 28.2694 13.0789 28.2694 13.0827C28.2324 13.1548 28.151 13.2344 28.1028 13.2344C28.0806 13.2344 28.0696 13.223 28.0696 13.2003C28.0696 13.1775 28.0733 13.151 28.0881 13.1131L28.1103 13.0372C28.1103 13.0334 28.0992 13.0297 28.0992 13.0334C28.0288 13.1586 27.9585 13.2344 27.8956 13.2344C27.8549 13.2344 27.8141 13.2003 27.8141 13.1434C27.8141 12.9766 28.0029 12.7339 28.1362 12.7339C28.1584 12.7339 28.1843 12.7415 28.1954 12.7491C28.2028 12.7529 28.2028 12.7567 28.2065 12.7491C28.2213 12.7301 28.2361 12.7074 28.2435 12.696C28.2509 12.6846 28.299 12.6998 28.2953 12.7074L28.1584 13.0789Z" fill="white"/>
</g>
<defs>
<clipPath id="clip0_1_424">
<rect width="21" height="8.72" fill="white" transform="translate(13.25 4.52002)"/>
</clipPath>
</defs>
</svg>
