<svg width="50" height="53" viewBox="0 0 50 53" fill="none" xmlns="http://www.w3.org/2000/svg">
<g opacity="0.7" clip-path="url(#clip0_1_377)">
<mask id="mask0_1_377" style="mask-type:luminance" maskUnits="userSpaceOnUse" x="7" y="0" width="37" height="37">
<path d="M43.5293 0.5H7.25702V36.7643H43.5293V0.5Z" fill="white"/>
<path d="M25.3932 1.53613C22.0112 1.53613 18.7051 2.5388 15.8931 4.41733C13.081 6.29586 10.8892 8.9659 9.59505 12.0898C8.30081 15.2137 7.96217 18.6511 8.62197 21.9674C9.28178 25.2837 10.9104 28.3299 13.3018 30.7209C15.6933 33.1118 18.7401 34.74 22.0572 35.3996C25.3742 36.0593 28.8124 35.7208 31.937 34.4268C35.0616 33.1329 37.7322 30.9416 39.6111 28.1302C41.4901 25.3188 42.493 22.0134 42.493 18.6322C42.493 14.098 40.6914 9.74957 37.4846 6.54344C34.2777 3.33732 29.9284 1.53613 25.3932 1.53613ZM41.3917 18.0897H36.8633C36.8224 15.5081 36.3604 12.9505 35.4953 10.5176H39.1961C40.5527 12.8172 41.3078 15.4214 41.3917 18.0897ZM25.3932 34.6444C25.0879 34.6444 24.6807 34.3208 24.2735 33.7581C23.7372 33.005 23.2251 31.847 22.7926 30.4111C22.5534 29.6184 22.3417 28.7575 22.1595 27.8416H28.6198C28.4365 28.7575 28.2258 29.6184 27.9867 30.4111C27.1114 33.3195 26.0263 34.6444 25.3891 34.6444H25.3932ZM21.959 26.7568C21.5554 24.2524 21.346 21.7204 21.333 19.1837H29.4442C29.4311 21.7204 29.2219 24.2524 28.8182 26.7568H21.959ZM21.333 18.0938C21.3461 15.5575 21.5554 13.0258 21.959 10.5217H28.8182C29.2218 13.0258 29.4311 15.5575 29.4442 18.0938H21.333ZM22.1585 9.43184C22.3407 8.51599 22.5523 7.65508 22.7915 6.86235C23.6669 3.954 24.751 2.63007 25.3881 2.63007C25.6934 2.63007 26.1006 2.95266 26.5078 3.51541C27.0441 4.26945 27.5562 5.42649 27.9887 6.86235C28.2279 7.65508 28.4386 8.51599 28.6218 9.43184H22.1585ZM27.435 2.94451C29.3608 3.54492 31.1471 4.9879 32.6015 7.15441C33.0854 7.87827 33.5108 8.63948 33.8739 9.43083H29.7272C29.1775 6.58149 28.3795 4.30508 27.435 2.94451ZM21.049 9.43083H16.9024C17.2661 8.63987 17.6915 7.87873 18.1746 7.15441C19.6291 4.9879 21.4165 3.54492 23.3423 2.94451C22.3977 4.30508 21.5997 6.57844 21.049 9.43083ZM20.8567 10.5207C20.4633 13.0258 20.2591 15.557 20.2459 18.0929H15.0041C15.0621 15.3879 15.5587 12.8012 16.4413 10.5207H20.8567ZM20.2459 19.1826C20.2596 21.7188 20.4638 24.2503 20.8567 26.7558H16.4413C15.5587 24.4733 15.0621 21.8875 15.0041 19.1826H20.2459ZM21.0521 27.8446C21.6017 30.694 22.4007 32.9704 23.3453 34.331C21.4195 33.7316 19.6322 32.2876 18.1777 30.1211C17.6941 29.3971 17.2687 28.6358 16.9054 27.8446H21.0521ZM29.7302 27.8446H33.877C33.5131 28.6343 33.0866 29.3934 32.6015 30.115C31.1471 32.2845 29.3628 33.7275 27.435 34.328C28.3795 32.9673 29.1775 30.694 29.7272 27.8416L29.7302 27.8446ZM29.9206 26.7528C30.313 24.2472 30.5171 21.7157 30.5313 19.1796H35.7752C35.7162 21.8844 35.2205 24.4712 34.338 26.7528H29.9206ZM30.5313 18.0897C30.5171 15.554 30.313 13.0229 29.9206 10.5176H34.336C35.2184 12.8001 35.7141 15.3849 35.7732 18.0897H30.5313ZM38.0867 8.88335C38.2252 9.06245 38.3585 9.24359 38.4939 9.42777H35.0628C34.0083 6.97429 32.5445 4.95025 30.8142 3.56526C33.0335 4.36519 35.0473 5.64772 36.7106 7.32029C37.2038 7.81269 37.6644 8.3365 38.0898 8.88844L38.0867 8.88335ZM12.6874 8.88844C13.1127 8.33675 13.5731 7.81296 14.0656 7.32029C15.7291 5.65023 17.7421 4.36954 19.9599 3.57035C18.2296 4.95432 16.7669 6.97938 15.7124 9.43287H12.2854C12.4143 9.24902 12.5483 9.06754 12.6874 8.88844ZM11.581 10.5176H15.2809C14.4167 12.9507 13.955 15.5082 13.9139 18.0897H9.38454C9.46879 15.4213 10.2242 12.8171 11.581 10.5176ZM9.38454 19.1796H13.9139C13.9546 21.7629 14.4163 24.3222 15.2809 26.7568H11.581C10.2242 24.457 9.46879 21.8524 9.38454 19.1837V19.1796ZM12.6874 28.385C12.549 28.207 12.4147 28.0248 12.2854 27.8406H15.7124C16.7669 30.2941 18.2307 32.3181 19.9599 33.7041C17.7425 32.9041 15.7296 31.6236 14.0656 29.9542C13.5731 29.4612 13.1127 28.937 12.6874 28.385ZM38.0898 28.385C37.6644 28.9373 37.2038 29.4614 36.7106 29.9542C35.0469 31.624 33.0339 32.9046 30.8163 33.7041C32.5466 32.3191 34.0102 30.2941 35.0647 27.8406H38.4918C38.3616 28.0248 38.2282 28.207 38.0847 28.385H38.0898ZM39.1911 26.7568H35.4953C36.3603 24.3237 36.8224 21.7657 36.8633 19.1837H41.3917C41.3078 21.8524 40.5527 24.4569 39.1961 26.7568" fill="black"/>
</mask>
<g mask="url(#mask0_1_377)">
<path d="M36.8633 18.0897L36.3451 18.0979L36.3532 18.6078H36.8633V18.0897ZM35.4953 10.5176V9.99958H34.7612L35.0071 10.6912L35.4953 10.5176ZM39.1961 10.5176L39.6425 10.2545L39.4921 9.99958H39.1961V10.5176ZM24.2735 33.7581L23.8515 34.0586L23.8537 34.0617L24.2735 33.7581ZM22.1594 27.8416V27.3236H21.5281L21.6512 27.9426L22.1594 27.8416ZM28.6197 27.8416L29.1279 27.9432L29.2518 27.3236H28.6197V27.8416ZM21.959 26.7568L21.4474 26.8393L21.5176 27.2749H21.959V26.7568ZM21.333 19.1837V18.6656H20.8122L20.8148 19.1864L21.333 19.1837ZM29.4442 19.1837L29.9623 19.1864L29.965 18.6656H29.4442V19.1837ZM28.8182 26.7568V27.2749H29.2596L29.3298 26.8393L28.8182 26.7568ZM21.333 18.0938L20.8148 18.0912L20.8121 18.6118H21.333V18.0938ZM21.959 10.5217V10.0037H21.5176L21.4474 10.4393L21.959 10.5217ZM28.8182 10.5217L29.3298 10.4393L29.2596 10.0037H28.8182V10.5217ZM29.4442 18.0938V18.6118H29.965L29.9623 18.0912L29.4442 18.0938ZM22.1585 9.43184L21.6503 9.33078L21.5271 9.9499H22.1585V9.43184ZM26.5078 3.5154L26.93 3.21513L26.9276 3.21178L26.5078 3.5154ZM28.6218 9.43184V9.9499H29.2539L29.1299 9.33025L28.6218 9.43184ZM27.435 2.94451L27.5892 2.44995L26.1492 2.00097L27.0093 3.23991L27.435 2.94451ZM32.6015 7.15441L33.0324 6.86655L33.0318 6.86568L32.6015 7.15441ZM33.8738 9.43082V9.94888H34.6816L34.3449 9.21485L33.8738 9.43082ZM29.7272 9.43082L29.2183 9.52892L29.2994 9.94888H29.7272V9.43082ZM16.9023 9.43082L16.4315 9.21437L16.0937 9.94888H16.9023V9.43082ZM18.1746 7.15441L17.7444 6.86568L17.7435 6.867L18.1746 7.15441ZM23.3422 2.94451L23.7679 3.23991L24.628 2.00097L23.1879 2.44995L23.3422 2.94451ZM20.8566 10.5207L21.3685 10.601L21.4625 10.0026H20.8566V10.5207ZM20.2459 18.0928V18.6109H20.7614L20.7641 18.0954L20.2459 18.0928ZM15.0041 18.0928L14.486 18.0817L14.4746 18.6109H15.0041V18.0928ZM16.4413 10.5207V10.0026H16.0861L15.9579 10.3338L16.4413 10.5207ZM20.2459 19.1826L20.7641 19.1798L20.7613 18.6646H20.2459V19.1826ZM20.8566 26.7558V27.2738H21.4624L21.3686 26.6756L20.8566 26.7558ZM16.4413 26.7558L15.9579 26.9426L16.086 27.2738H16.4413V26.7558ZM15.0041 19.1826V18.6646H14.4746L14.486 19.1938L15.0041 19.1826ZM21.0521 27.8446L21.5608 27.7465L21.4799 27.3266H21.0521V27.8446ZM23.3452 34.331L23.1912 34.8256L24.6304 35.2735L23.771 34.0356L23.3452 34.331ZM18.1777 30.1211L17.7468 30.4087L17.7474 30.4098L18.1777 30.1211ZM16.9054 27.8446V27.3266H16.0972L16.4344 28.0609L16.9054 27.8446ZM29.7302 27.8446L29.3636 28.2108L29.5155 28.3627H29.7302V27.8446ZM33.8769 27.8446L34.3476 28.0614L34.6861 27.3266H33.8769V27.8446ZM27.435 34.328L27.0093 34.0326L26.1496 35.2708L27.5891 34.8225L27.435 34.328ZM29.7272 27.8416L30.0937 27.4755L29.4032 26.7844L29.2183 27.7436L29.7272 27.8416ZM29.9206 26.7528L29.4086 26.6726L29.3149 27.2708H29.9206V26.7528ZM30.5313 19.1796V18.6616H30.0159L30.0131 19.1767L30.5313 19.1796ZM35.7752 19.1796L36.2932 19.1909L36.3048 18.6616H35.7752V19.1796ZM34.338 26.7528V27.2708H34.6932L34.8213 26.9396L34.338 26.7528ZM30.5313 18.0897L30.0131 18.0926L30.0159 18.6078H30.5313V18.0897ZM29.9206 10.5176V9.99958H29.3149L29.4086 10.5978L29.9206 10.5176ZM34.3359 10.5176L34.8193 10.3309L34.6912 9.99958H34.3359V10.5176ZM35.7732 18.0897V18.6078H36.3027L36.2912 18.0784L35.7732 18.0897ZM38.0867 8.88334L38.4967 8.56657L37.6422 9.14961L38.0867 8.88334ZM38.4939 9.42776V9.94584H39.5176L38.9114 9.12101L38.4939 9.42776ZM35.0627 9.42776L34.5866 9.63229L34.7214 9.94584H35.0627V9.42776ZM30.8142 3.56526L30.99 3.07791L30.4904 3.96969L30.8142 3.56526ZM36.7105 7.32028L36.3432 7.68555L36.3444 7.68682L36.7105 7.32028ZM38.0898 8.88843L37.6793 9.20464L38.5343 8.62217L38.0898 8.88843ZM19.9599 3.57035L20.2837 3.97489L19.7842 3.08298L19.9599 3.57035ZM15.7124 9.43286V9.95092H16.0538L16.1885 9.63738L15.7124 9.43286ZM12.2854 9.43286L11.8611 9.13545L11.2893 9.95092H12.2854V9.43286ZM15.2809 10.5176L15.7692 10.691L16.0148 9.99958H15.2809V10.5176ZM13.9139 18.0897V18.6078H14.4239L14.432 18.098L13.9139 18.0897ZM9.38452 18.0897L8.8666 18.0734L8.84973 18.6078H9.38452V18.0897ZM9.38452 19.1796V18.6616H8.86635V19.1796H9.38452ZM13.9139 19.1796L14.432 19.1714L14.424 18.6616H13.9139V19.1796ZM15.2809 26.7568V27.2749H16.0147L15.7692 26.5835L15.2809 26.7568ZM11.581 26.7568L11.1347 27.02L11.2851 27.2749H11.581V26.7568ZM9.38452 19.1837H8.86635V19.1919L8.8666 19.2L9.38452 19.1837ZM12.2854 27.8406V27.3225H11.2887L11.8612 28.1382L12.2854 27.8406ZM15.7124 27.8406L16.1885 27.6361L16.0538 27.3225H15.7124V27.8406ZM19.9599 33.7041L19.784 34.1914L20.2841 33.2999L19.9599 33.7041ZM38.0898 28.385L38.5003 28.7011L39.1429 27.8669H38.0898V28.385ZM36.7105 29.9542L36.3443 29.5878L36.3435 29.5885L36.7105 29.9542ZM30.8163 33.7041L30.4924 33.2997L30.9921 34.1915L30.8163 33.7041ZM35.0647 27.8406V27.3225H34.7234L34.5886 27.6361L35.0647 27.8406ZM38.4918 27.8406L38.9149 28.1397L39.4929 27.3225H38.4918V27.8406ZM38.0846 28.385L37.6812 28.0599L37.0018 28.903H38.0846V28.385ZM35.4953 26.7568L35.007 26.5834L34.7612 27.2749H35.4953V26.7568ZM36.8633 19.1837V18.6656H36.3532L36.3451 19.1755L36.8633 19.1837ZM41.3916 19.1837L41.9096 19.1999L41.9264 18.6656H41.3916V19.1837ZM25.3932 1.01807C21.9086 1.01807 18.5024 2.05111 15.6051 3.98658L16.1809 4.84808C18.9078 3.02647 22.1136 2.05419 25.3932 2.05419V1.01807ZM15.6051 3.98658C12.7079 5.92203 10.4497 8.67297 9.11631 11.8915L10.0738 12.2881C11.3287 9.2588 13.4541 6.66969 16.1809 4.84808L15.6051 3.98658ZM9.11631 11.8915C7.78284 15.1101 7.43395 18.6517 8.11374 22.0684L9.13017 21.8663C8.49037 18.6505 8.81874 15.3173 10.0738 12.2881L9.11631 11.8915ZM8.11374 22.0684C8.79353 25.4853 10.4715 28.6238 12.9354 31.0872L13.6682 30.3545C11.3493 28.0361 9.76998 25.0821 9.13017 21.8663L8.11374 22.0684ZM12.9354 31.0872C15.3993 33.5505 18.5385 35.2281 21.9561 35.9077L22.1583 34.8916C18.9418 34.2519 15.9871 32.673 13.6682 30.3545L12.9354 31.0872ZM21.9561 35.9077C25.3736 36.5874 28.916 36.2386 32.1353 34.9054L31.7386 33.9482C28.7088 35.203 25.3748 35.5312 22.1583 34.8916L21.9561 35.9077ZM32.1353 34.9054C35.3546 33.5723 38.1061 31.3146 40.042 28.418L39.1803 27.8423C37.3583 30.5686 34.7686 32.6935 31.7386 33.9482L32.1353 34.9054ZM40.042 28.418C41.9779 25.5214 43.0111 22.1159 43.0111 18.6321H41.9748C41.9748 21.911 41.0023 25.1161 39.1803 27.8423L40.042 28.418ZM43.0111 18.6321C43.0111 13.9606 41.1549 9.48039 37.8509 6.17711L37.1181 6.90976C40.2278 10.0187 41.9748 14.2354 41.9748 18.6321H43.0111ZM37.8509 6.17711C34.547 2.87383 30.0658 1.01807 25.3932 1.01807V2.05419C29.7909 2.05419 34.0085 3.80079 37.1181 6.90976L37.8509 6.17711ZM41.3916 17.5717H36.8633V18.6078H41.3916V17.5717ZM37.3814 18.0816C37.3396 15.4436 36.8674 12.8301 35.9835 10.3441L35.0071 10.6912C35.8532 13.0709 36.3051 15.5727 36.3451 18.0979L37.3814 18.0816ZM35.4953 11.0357H39.1961V9.99958H35.4953V11.0357ZM38.7499 10.7808C40.0621 13.0054 40.7926 15.5247 40.8738 18.106L41.9096 18.0735C41.823 15.3181 41.0432 12.629 39.6425 10.2545L38.7499 10.7808ZM25.3932 34.1263C25.4122 34.1263 25.3478 34.1286 25.1934 34.0062C25.051 33.8934 24.879 33.7109 24.6934 33.4544L23.8537 34.0617C24.0752 34.3678 24.3104 34.6286 24.5497 34.8182C24.7771 34.9984 25.0688 35.1624 25.3932 35.1624V34.1263ZM24.6956 33.4575C24.206 32.7702 23.7139 31.6729 23.2888 30.2617L22.2965 30.5605C22.7364 32.0209 23.2682 33.2398 23.8515 34.0586L24.6956 33.4575ZM23.2888 30.2617C23.0551 29.487 22.8471 28.6423 22.6677 27.7405L21.6512 27.9426C21.8363 28.8727 22.0519 29.7497 22.2965 30.5605L23.2888 30.2617ZM22.1594 28.3597H28.6197V27.3236H22.1594V28.3597ZM28.1116 27.74C27.9311 28.6425 27.7242 29.4871 27.4905 30.2615L28.4827 30.5607C28.7275 29.7496 28.9419 28.8724 29.1279 27.9432L28.1116 27.74ZM27.4905 30.2615C27.0622 31.6845 26.5904 32.6925 26.1666 33.3322C25.954 33.653 25.7638 33.8658 25.6103 33.9929C25.4477 34.1274 25.3754 34.1263 25.3891 34.1263V35.1624C25.7214 35.1624 26.0237 34.9958 26.2711 34.791C26.5277 34.5787 26.7827 34.2785 27.0306 33.9045C27.5273 33.1546 28.0357 32.046 28.4827 30.5607L27.4905 30.2615ZM25.3891 35.1624H25.3932V34.1263H25.3891V35.1624ZM22.4706 26.6744C22.0711 24.1963 21.8641 21.6911 21.8511 19.181L20.8148 19.1864C20.828 21.7498 21.0396 24.3084 21.4474 26.8393L22.4706 26.6744ZM21.333 19.7017H29.4442V18.6656H21.333V19.7017ZM28.926 19.181C28.9131 21.6911 28.706 24.1963 28.3067 26.6744L29.3298 26.8393C29.7377 24.3084 29.9492 21.7498 29.9623 19.1864L28.926 19.181ZM28.8182 26.2387H21.959V27.2749H28.8182V26.2387ZM21.8511 18.0965C21.8641 15.5868 22.0713 13.0818 22.4706 10.6041L21.4474 10.4393C21.0396 12.9698 20.828 15.528 20.8148 18.0912L21.8511 18.0965ZM21.959 11.0398H28.8182V10.0037H21.959V11.0398ZM28.3067 10.6041C28.706 13.0818 28.913 15.5868 28.926 18.0965L29.9623 18.0912C29.9491 15.528 29.7377 12.9698 29.3298 10.4393L28.3067 10.6041ZM29.4442 17.5757H21.333V18.6118H29.4442V17.5757ZM22.6667 9.5329C22.846 8.63114 23.0539 7.78664 23.2876 7.01197L22.2955 6.71273C22.0508 7.52351 21.8353 8.40082 21.6503 9.33078L22.6667 9.5329ZM23.2876 7.01197C23.7159 5.5889 24.1876 4.58109 24.6111 3.94163C24.8235 3.62107 25.0138 3.40836 25.167 3.28147C25.3294 3.1471 25.4017 3.14813 25.3881 3.14813V2.112C25.0558 2.112 24.7537 2.27853 24.5063 2.48329C24.2498 2.69552 23.9948 2.99557 23.7471 3.36953C23.2506 4.11911 22.7425 5.22744 22.2955 6.71273L23.2876 7.01197ZM25.3881 3.14813C25.3694 3.14813 25.4341 3.14608 25.5882 3.26795C25.7305 3.38054 25.9023 3.5626 26.0878 3.81903L26.9276 3.21178C26.7059 2.90545 26.4707 2.64484 26.2313 2.45546C26.0037 2.27535 25.7121 2.112 25.3881 2.112V3.14813ZM26.0855 3.81565C26.5752 4.50424 27.0674 5.60073 27.4925 7.01177L28.4848 6.71294C28.0448 5.25225 27.5129 4.03466 26.93 3.21513L26.0855 3.81565ZM27.4925 7.01177C27.7261 7.78611 27.9332 8.6309 28.1137 9.53344L29.1299 9.33025C28.944 8.40106 28.7295 7.52403 28.4848 6.71294L27.4925 7.01177ZM28.6218 8.91377H22.1585V9.9499H28.6218V8.91377ZM27.2807 3.43908C29.0662 3.99576 30.7646 5.34777 32.1713 7.44312L33.0318 6.86568C31.5295 4.62801 29.6553 3.09406 27.5892 2.44995L27.2807 3.43908ZM32.1707 7.44225C32.6393 8.14325 33.0513 8.88042 33.4028 9.64679L34.3449 9.21485C33.9704 8.39851 33.5315 7.61327 33.0324 6.86655L32.1707 7.44225ZM33.8738 8.91276H29.7272V9.94888H33.8738V8.91276ZM30.2359 9.33272C29.6818 6.45973 28.867 4.09863 27.8606 2.64912L27.0093 3.23991C27.8921 4.51151 28.6733 6.70324 29.2183 9.52892L30.2359 9.33272ZM21.049 8.91276H16.9023V9.94888H21.049V8.91276ZM17.3731 9.64727C17.7255 8.88097 18.1377 8.14355 18.6057 7.44182L17.7435 6.867C17.2454 7.61389 16.8067 8.39877 16.4315 9.21437L17.3731 9.64727ZM18.6049 7.44312C20.0115 5.34788 21.7109 3.99579 23.4964 3.43908L23.1879 2.44995C21.1221 3.09403 19.2467 4.62791 17.7444 6.86568L18.6049 7.44312ZM22.9165 2.64912C21.9103 4.09855 21.0954 6.45651 20.5403 9.33265L21.5578 9.529C22.1039 6.70036 22.8851 4.51159 23.7679 3.23991L22.9165 2.64912ZM20.3447 10.4403C19.9473 12.9712 19.741 15.5283 19.7278 18.0902L20.7641 18.0954C20.7772 15.5857 20.9791 13.0805 21.3685 10.601L20.3447 10.4403ZM20.2459 17.5748H15.0041V18.6109H20.2459V17.5748ZM15.5221 18.1039C15.5789 15.454 16.0655 12.9274 16.9245 10.7076L15.9579 10.3338C15.0519 12.6751 14.5452 15.3218 14.486 18.0817L15.5221 18.1039ZM16.4413 11.0387H20.8566V10.0026H16.4413V11.0387ZM19.7278 19.1854C19.7416 21.7475 19.9478 24.3049 20.3447 26.8361L21.3686 26.6756C20.9797 24.1956 20.7777 21.6901 20.7641 19.1798L19.7278 19.1854ZM20.8566 26.2377H16.4413V27.2738H20.8566V26.2377ZM16.9245 26.5691C16.0655 24.3471 15.5789 21.8213 15.5221 19.1716L14.486 19.1938C14.5452 21.9536 15.052 24.5994 15.9579 26.9426L16.9245 26.5691ZM15.0041 19.7007H20.2459V18.6646H15.0041V19.7007ZM20.5433 27.9427C21.0975 30.8159 21.9133 33.1769 22.9196 34.6264L23.771 34.0356C22.8881 32.7639 22.1059 30.572 21.5608 27.7465L20.5433 27.9427ZM23.4993 33.8363C21.714 33.2806 20.0147 31.9278 18.6079 29.8323L17.7474 30.4098C19.2497 32.6475 21.1251 34.1825 23.1912 34.8256L23.4993 33.8363ZM18.6086 29.8335C18.1403 29.1321 17.7282 28.3948 17.3763 27.6285L16.4344 28.0609C16.8093 28.8768 17.2481 29.662 17.7468 30.4087L18.6086 29.8335ZM16.9054 28.3627H21.0521V27.3266H16.9054V28.3627ZM29.7302 28.3627H33.8769V27.3266H29.7302V28.3627ZM33.4062 27.6279C33.054 28.3923 32.6411 29.1274 32.1715 29.826L33.0316 30.404C33.5321 29.6595 33.9721 28.8761 34.3476 28.0614L33.4062 27.6279ZM32.1715 29.826C30.7648 31.9244 29.0681 33.2767 27.2809 33.8333L27.5891 34.8225C29.6574 34.1783 31.5293 32.6447 33.0316 30.404L32.1715 29.826ZM27.8606 34.6234C28.8669 33.1738 29.6817 30.8159 30.2359 27.9396L29.2183 27.7436C28.6733 30.5721 27.8921 32.7608 27.0093 34.0326L27.8606 34.6234ZM29.3605 28.2078L29.3636 28.2108L30.0968 27.4786L30.0937 27.4755L29.3605 28.2078ZM30.4325 26.8329C30.8289 24.3017 31.0351 21.7445 31.0495 19.1825L30.0131 19.1767C29.999 21.6869 29.797 24.1926 29.4086 26.6726L30.4325 26.8329ZM30.5313 19.6977H35.7752V18.6616H30.5313V19.6977ZM35.2572 19.1683C35.1993 21.8184 34.7136 24.3452 33.8547 26.5659L34.8213 26.9396C35.7272 24.5973 36.233 21.9505 36.2932 19.1909L35.2572 19.1683ZM34.338 26.2347H29.9206V27.2708H34.338V26.2347ZM31.0495 18.0868C31.0351 15.5252 30.8288 12.9683 30.4325 10.4375L29.4086 10.5978C29.797 13.0775 29.999 15.5827 30.0131 18.0926L31.0495 18.0868ZM29.9206 11.0357H34.3359V9.99958H29.9206V11.0357ZM33.8526 10.7044C34.7116 12.9262 35.1973 15.451 35.2551 18.101L36.2912 18.0784C36.231 15.3188 35.7253 12.6741 34.8193 10.3309L33.8526 10.7044ZM35.7732 17.5717H30.5313V18.6078H35.7732V17.5717ZM37.6767 9.20011C37.8107 9.37353 37.9405 9.54981 38.0762 9.73453L38.9114 9.12101C38.7764 8.93735 38.6396 8.75135 38.4967 8.56657L37.6767 9.20011ZM38.4939 8.9097H35.0627V9.94584H38.4939V8.9097ZM35.5387 9.22324C34.4578 6.70813 32.9475 4.60913 31.1381 3.16084L30.4904 3.96969C32.1416 5.29136 33.5586 7.24045 34.5866 9.63229L35.5387 9.22324ZM30.6385 4.05262C32.7856 4.82653 34.7339 6.06737 36.3432 7.68555L37.078 6.95502C35.3607 5.22807 33.2814 3.90384 30.99 3.07791L30.6385 4.05262ZM36.3444 7.68682C36.8216 8.16343 37.2676 8.67042 37.6793 9.20464L38.5002 8.57223C38.0612 8.00258 37.5857 7.46195 37.0768 6.95373L36.3444 7.68682ZM38.5343 8.62217L38.5312 8.61708L37.6422 9.14961L37.6452 9.15469L38.5343 8.62217ZM13.0978 9.20471C13.5096 8.6706 13.9553 8.16348 14.4321 7.6865L13.6991 6.95406C13.1909 7.46243 12.7159 8.00291 12.277 8.57216L13.0978 9.20471ZM14.4321 7.6865C16.0416 6.0707 17.9899 4.83096 20.1357 4.05772L19.7842 3.08298C17.4944 3.90813 15.4165 5.22977 13.6991 6.95406L14.4321 7.6865ZM19.6362 3.16581C17.8265 4.61327 16.3172 6.71346 15.2364 9.22833L16.1885 9.63738C17.2167 7.24531 18.6326 5.29537 20.2837 3.97489L19.6362 3.16581ZM15.7124 8.9148H12.2854V9.95092H15.7124V8.9148ZM12.7097 9.73026C12.8337 9.55338 12.9627 9.37868 13.0967 9.20617L12.2782 8.57069C12.1339 8.75639 11.9949 8.94464 11.8611 9.13545L12.7097 9.73026ZM11.581 11.0357H15.2809V9.99958H11.581V11.0357ZM14.7925 10.3443C13.9096 12.8304 13.4378 15.4437 13.3959 18.0816L14.432 18.098C14.4722 15.5728 14.9239 13.071 15.7692 10.691L14.7925 10.3443ZM13.9139 17.5717H9.38452V18.6078H13.9139V17.5717ZM9.90244 18.1061C9.98394 15.5246 10.7147 13.0054 12.0274 10.7809L11.1347 10.2544C9.73365 12.6289 8.9536 15.3179 8.8666 18.0734L9.90244 18.1061ZM9.38452 19.6977H13.9139V18.6616H9.38452V19.6977ZM13.3959 19.1877C13.4373 21.8273 13.9091 24.4424 14.7925 26.9301L15.7692 26.5835C14.9234 24.2019 14.4718 21.6983 14.432 19.1714L13.3959 19.1877ZM15.2809 26.2387H11.581V27.2749H15.2809V26.2387ZM12.0274 26.4936C10.7147 24.2688 9.98394 21.7491 9.90244 19.1673L8.8666 19.2C8.9536 21.9558 9.73364 24.6452 11.1347 27.02L12.0274 26.4936ZM9.9027 19.1837V19.1796H8.86635V19.1837H9.9027ZM13.0966 28.0671C12.9635 27.8959 12.8342 27.7205 12.7096 27.543L11.8612 28.1382C11.9951 28.329 12.1345 28.518 12.2783 28.7029L13.0966 28.0671ZM12.2854 28.3586H15.7124V27.3225H12.2854V28.3586ZM15.2364 28.0451C16.3173 30.5603 17.8276 32.6591 19.6358 34.1083L20.2841 33.2999C18.6336 31.9771 17.2166 30.0278 16.1885 27.6361L15.2364 28.0451ZM20.1358 33.2168C17.9903 32.4427 16.0427 31.2037 14.4326 29.5885L13.6986 30.3199C15.4166 32.0434 17.4947 33.3655 19.784 34.1914L20.1358 33.2168ZM14.4326 29.5885C13.9558 29.1112 13.5097 28.6033 13.0979 28.0688L12.2769 28.7012C12.7158 29.2707 13.1903 29.8112 13.6986 30.3199L14.4326 29.5885ZM37.6792 28.0689C37.2675 28.6035 36.8215 29.1108 36.3443 29.5878L37.0769 30.3206C37.5858 29.812 38.0613 29.2711 38.5003 28.7011L37.6792 28.0689ZM36.3435 29.5885C34.7338 31.2041 32.7862 32.4432 30.6405 33.2168L30.9921 34.1915C33.2817 33.366 35.36 32.0438 37.0777 30.3198L36.3435 29.5885ZM31.14 34.1085C32.9496 32.6602 34.4599 30.5602 35.5408 28.0451L34.5886 27.6361C33.5607 30.028 32.1435 31.978 30.4924 33.2997L31.14 34.1085ZM35.0647 28.3586H38.4918V27.3225H35.0647V28.3586ZM38.0688 27.5415C37.9414 27.7215 37.8151 27.8938 37.6812 28.0599L38.4882 28.7101C38.6414 28.52 38.7817 28.3281 38.9149 28.1397L38.0688 27.5415ZM38.0846 28.903H38.0898V27.8669H38.0846V28.903ZM39.191 26.2387H35.4953V27.2749H39.191V26.2387ZM35.9835 26.9303C36.8674 24.4441 37.3396 21.8302 37.3814 19.1919L36.3451 19.1755C36.3051 21.7011 35.8532 24.2033 35.007 26.5834L35.9835 26.9303ZM36.8633 19.7017H41.3916V18.6656H36.8633V19.7017ZM40.8738 19.1674C40.7926 21.7491 40.0621 24.2688 38.7498 26.4936L39.6425 27.02C41.0432 24.6451 41.823 21.9556 41.9096 19.1999L40.8738 19.1674Z" fill="white"/>
</g>
<path d="M28.4854 8.79358C27.69 8.79307 26.8975 8.88813 26.1248 9.07669C25.391 9.25589 24.636 9.43734 23.9746 9.80327C23.3081 10.166 22.6752 10.587 22.0832 11.0614C21.4673 11.5563 20.9194 12.13 20.4533 12.7676C19.7535 13.7238 19.2919 14.8637 18.9775 16.0052L21.019 16.0105C21.0408 15.9352 21.1902 15.5692 21.2099 15.5233C21.2808 15.3577 21.3607 15.1943 21.4406 15.034C21.6026 14.7137 21.7888 14.4061 21.9972 14.1138C22.884 12.8632 24.1026 11.8844 25.5162 11.2874C26.431 10.892 27.4868 10.7369 28.4846 10.7369C29.5303 10.7267 30.5676 10.9236 31.5367 11.316C32.5057 11.7084 33.3872 12.2888 34.1303 13.0234C34.8733 13.758 35.4631 14.6324 35.8657 15.5959C36.2683 16.5595 36.4755 17.5931 36.4755 18.6371C36.4755 19.6811 36.2683 20.7148 35.8657 21.6783C35.4631 22.6419 34.8733 23.5163 34.1303 24.2509C33.3872 24.9855 32.5057 25.5657 31.5367 25.9582C30.5676 26.3507 29.5303 26.5475 28.4846 26.5373C26.2922 26.5373 24.1104 25.6217 22.645 23.9622C22.1402 23.4052 21.713 22.7827 21.375 22.1115C21.2598 21.8766 21.1568 21.6367 21.0658 21.3917H23.4203C23.3781 20.7547 23.3517 20.099 23.3396 19.4296H18.6569C18.6569 19.4296 18.7377 20.3993 18.9216 21.0319C19.0665 21.5341 19.197 22.1092 19.4013 22.6024C20.2188 24.5714 21.6978 26.2061 23.5319 27.2707C24.5417 27.8587 25.655 28.1328 26.8073 28.3316L26.8443 28.3376C28.1895 28.5647 29.5673 28.5106 30.8904 28.1787C32.2136 27.8469 33.4534 27.2445 34.5314 26.4096C35.6093 25.5748 36.5021 24.5256 37.153 23.3287C37.8039 22.1316 38.199 20.8127 38.3131 19.4554C38.4272 18.0982 38.2578 16.732 37.8158 15.4435C37.3739 14.1548 36.6688 12.9718 35.7453 11.9692C34.8218 10.9667 33.7 10.1664 32.4506 9.619C31.2014 9.07159 29.852 8.78899 28.4876 8.78906" fill="white"/>
<path d="M22.3065 8.78907C23.1014 8.78861 23.8936 8.88366 24.6658 9.07217C25.3992 9.25138 26.1536 9.43284 26.8147 9.79876C27.4812 10.1612 28.1141 10.5822 28.7059 11.0569C29.3216 11.5517 29.8692 12.1253 30.3348 12.7631C31.0342 13.7193 31.4963 14.8593 31.8106 16.0007L29.7695 16.006C29.7476 15.9307 29.5991 15.5648 29.5795 15.5189C29.5076 15.3532 29.4308 15.19 29.3488 15.0294C29.1868 14.7092 29.0009 14.4016 28.7926 14.1093C27.9061 12.8588 26.6881 11.88 25.2755 11.2828C24.3612 10.8875 23.3052 10.7324 22.3088 10.7324C21.2636 10.7222 20.2269 10.919 19.2584 11.3115C18.2899 11.704 17.4089 12.2842 16.6663 13.0188C15.9236 13.7534 15.3341 14.6278 14.9318 15.5914C14.5295 16.5549 14.3224 17.5886 14.3224 18.6326C14.3224 19.6766 14.5295 20.7103 14.9318 21.6739C15.3341 22.6374 15.9236 23.5117 16.6663 24.2464C17.4089 24.981 18.2899 25.5613 19.2584 25.9538C20.2269 26.3462 21.2636 26.543 22.3088 26.5329C24.4991 26.5329 26.6805 25.6172 28.1451 23.9578C28.6494 23.4006 29.0764 22.7781 29.4144 22.1071C29.5289 21.8722 29.6319 21.6322 29.7235 21.3873H27.3679C27.4109 20.7503 27.4373 20.0944 27.4494 19.4251H32.1295C32.1295 19.4251 32.0488 20.3956 31.8664 21.0296C31.7224 21.5318 31.592 22.1071 31.3877 22.6003C30.5707 24.5691 29.0918 26.2038 27.2594 27.2684C26.2501 27.8565 25.1369 28.1306 23.9851 28.3293L23.9489 28.3353C22.6036 28.5645 21.2255 28.512 19.9015 28.1812C18.5777 27.8504 17.337 27.2485 16.2582 26.4137C15.1794 25.5789 14.2859 24.5294 13.6343 23.3317C12.9829 22.1338 12.5875 20.8139 12.4733 19.4555C12.3592 18.0972 12.5287 16.7299 12.9713 15.4403C13.4138 14.1508 14.1196 12.9672 15.0441 11.9645C15.9685 10.9616 17.0914 10.1616 18.3415 9.61502C19.5917 9.06842 20.9418 8.78717 22.3065 8.78907Z" fill="white"/>
<path d="M1.37197 47.3491V47.6557C1.37154 47.702 1.389 47.7466 1.42058 47.7799C1.43524 47.7963 1.45308 47.8093 1.47296 47.8182C1.49285 47.8272 1.51433 47.8318 1.53604 47.8317H3.40364C3.42552 47.8312 3.44726 47.8354 3.46749 47.8439C3.48771 47.8525 3.50597 47.8653 3.52112 47.8814C3.55269 47.9147 3.57016 47.9594 3.56974 48.0057V49.0165C3.57016 49.0628 3.55269 49.1075 3.52112 49.1407C3.50607 49.1572 3.48787 49.1703 3.46765 49.1792C3.44745 49.1881 3.42565 49.1926 3.40364 49.1925H1.53604C1.51446 49.192 1.49303 49.1963 1.47315 49.2049C1.45325 49.2134 1.43534 49.2261 1.42058 49.2423C1.389 49.2755 1.37154 49.3202 1.37197 49.3665V49.6462C1.37154 49.6925 1.389 49.7371 1.42058 49.7704C1.43534 49.7866 1.45325 49.7993 1.47315 49.8078C1.49303 49.8164 1.51446 49.8205 1.53604 49.8201H3.67911C3.70112 49.82 3.72292 49.8246 3.74314 49.8335C3.76336 49.8424 3.78156 49.8555 3.7966 49.8719C3.82817 49.9052 3.84564 49.9498 3.84522 49.9962V51.007C3.84564 51.0533 3.82817 51.098 3.7966 51.1312C3.78145 51.1474 3.76319 51.1601 3.74296 51.1687C3.72274 51.1772 3.701 51.1814 3.67911 51.181H0.17484C0.152958 51.1814 0.131214 51.1772 0.11099 51.1687C0.090766 51.1601 0.0725057 51.1474 0.0573583 51.1312C0.0257853 51.098 0.00831238 51.0533 0.00873986 51.007V46.0027C0.00806861 45.9797 0.012041 45.9568 0.0204046 45.9355C0.0287682 45.914 0.0413482 45.8947 0.0573583 45.8785C0.0721657 45.8617 0.0903176 45.8485 0.110589 45.8395C0.130859 45.8306 0.152771 45.8262 0.17484 45.8267H3.67911C3.70119 45.8262 3.72309 45.8306 3.74337 45.8395C3.76364 45.8485 3.78179 45.8617 3.7966 45.8785C3.81261 45.8947 3.8252 45.914 3.83356 45.9355C3.84192 45.9568 3.84588 45.9797 3.84522 46.0027V46.997C3.84588 47.02 3.84192 47.0429 3.83356 47.0642C3.8252 47.0857 3.81261 47.1051 3.7966 47.1212C3.78179 47.138 3.76364 47.1513 3.74337 47.1602C3.72309 47.1692 3.70119 47.1736 3.67911 47.173H1.53604C1.51427 47.1726 1.49267 47.177 1.47273 47.1859C1.45279 47.1949 1.43499 47.2082 1.42058 47.2248C1.40457 47.241 1.39199 47.2604 1.38363 47.2818C1.37526 47.3032 1.37129 47.3261 1.37197 47.3491Z" fill="white"/>
<path d="M9.86521 49.9815V51.0171C9.86618 51.0631 9.84945 51.1078 9.81862 51.1414C9.80372 51.158 9.78556 51.1712 9.76531 51.1802C9.74506 51.1891 9.72318 51.1935 9.70114 51.1932H7.32308C6.9086 51.2064 6.49562 51.136 6.10772 50.986C5.78875 50.8552 5.50127 50.6552 5.26508 50.3999C5.04094 50.1518 4.87168 49.8572 4.7688 49.5362C4.65923 49.1953 4.6045 48.8386 4.60676 48.4798C4.6052 48.1161 4.67405 47.7557 4.80932 47.4193C4.93517 47.0966 5.12088 46.802 5.35623 46.5514C5.58695 46.3052 5.86208 46.1068 6.16646 45.9674C6.48038 45.8241 6.8203 45.75 7.16408 45.75C7.50786 45.75 7.84777 45.8241 8.16168 45.9674C8.46586 46.1072 8.74093 46.3055 8.97192 46.5514C9.45453 47.0719 9.72226 47.7627 9.71937 48.4798C9.71973 48.7082 9.67993 48.9348 9.60189 49.1488C9.53327 49.3439 9.43331 49.5259 9.30614 49.6874C9.24537 49.7744 9.26361 49.8178 9.36083 49.8178H9.69505C9.71703 49.818 9.73876 49.8227 9.75893 49.8316C9.77912 49.8404 9.79734 49.8534 9.81253 49.8696C9.84284 49.9036 9.85947 49.948 9.85913 49.994L9.86521 49.9815ZM7.16913 49.7744C7.32959 49.7755 7.48823 49.7395 7.63301 49.6687C7.77541 49.5989 7.90439 49.5035 8.01381 49.387C8.12578 49.2675 8.21385 49.1268 8.27309 48.9728C8.3344 48.8146 8.36533 48.6459 8.36423 48.4756C8.36496 48.3042 8.33403 48.1341 8.27309 47.9745C8.21326 47.8207 8.12525 47.6801 8.01381 47.5602C7.90601 47.4419 7.77665 47.3461 7.63301 47.2785C7.48775 47.2094 7.32933 47.174 7.16913 47.1749C7.00898 47.1745 6.85065 47.2098 6.70527 47.2785C6.56163 47.3461 6.43227 47.4419 6.32446 47.5602C6.21432 47.6807 6.12708 47.8212 6.06721 47.9745C6.00562 48.134 5.974 48.304 5.97404 48.4756C5.97363 48.646 6.00527 48.8147 6.06721 48.9728C6.12648 49.1263 6.21378 49.2669 6.32446 49.387C6.43387 49.5035 6.56287 49.5989 6.70527 49.6687C6.85022 49.739 7.00874 49.7751 7.16913 49.7744Z" fill="white"/>
<path d="M10.708 46.009C10.7075 45.9626 10.7249 45.918 10.7566 45.8847C10.7716 45.8683 10.7898 45.8553 10.81 45.8464C10.8302 45.8375 10.852 45.8329 10.8741 45.833H11.9091C11.9308 45.8331 11.9522 45.8379 11.9721 45.8468C11.9919 45.8556 12.0098 45.8685 12.0246 45.8847C12.0561 45.918 12.0737 45.9626 12.0732 46.009V48.973C12.0675 49.1344 12.0973 49.2951 12.1603 49.4432C12.2085 49.5564 12.2812 49.657 12.373 49.7373C12.4535 49.8052 12.5464 49.856 12.6464 49.8864C12.8174 49.9444 13.0021 49.9444 13.1731 49.8864C13.272 49.8564 13.3638 49.8056 13.4425 49.7373C13.5302 49.6556 13.5995 49.5552 13.6451 49.4432C13.713 49.2962 13.7476 49.1355 13.7463 48.973V46.009C13.746 45.963 13.7626 45.9187 13.793 45.8847C13.808 45.8683 13.8262 45.8553 13.8464 45.8464C13.8666 45.8375 13.8884 45.8329 13.9104 45.833H14.9455C14.9673 45.8329 14.9887 45.8375 15.0086 45.8464C15.0285 45.8553 15.0463 45.8683 15.0609 45.8847C15.0925 45.918 15.11 45.9626 15.1095 46.009V48.973C15.1141 49.2941 15.062 49.6133 14.9556 49.9154C14.8614 50.1862 14.7109 50.4327 14.5144 50.6379C14.3178 50.8432 14.0799 51.0023 13.8172 51.1044C13.2357 51.3252 12.596 51.3252 12.0145 51.1044C11.7535 51.0014 11.5168 50.8433 11.3197 50.6404C11.1233 50.4328 10.971 50.186 10.872 49.9154C10.7613 49.6142 10.7057 49.2948 10.708 48.973V46.009Z" fill="white"/>
<path d="M17.516 51.1807H16.4809C16.4586 51.1818 16.4364 51.178 16.4157 51.1694C16.3951 51.1608 16.3765 51.1477 16.3614 51.131C16.3316 51.0968 16.3157 51.0524 16.3168 51.0067V46.0087C16.3157 45.963 16.3316 45.9186 16.3614 45.8845C16.3763 45.8674 16.3948 45.8538 16.4155 45.8449C16.4361 45.8359 16.4585 45.8317 16.4809 45.8326H17.516C17.5377 45.8326 17.5592 45.8372 17.5791 45.8461C17.5989 45.855 17.6168 45.8681 17.6314 45.8845C17.663 45.9177 17.6805 45.9624 17.68 46.0087V51.0067C17.6805 51.053 17.663 51.0977 17.6314 51.131C17.6167 51.147 17.5988 51.1598 17.5789 51.1684C17.559 51.177 17.5375 51.1811 17.516 51.1807Z" fill="white"/>
<path d="M22.6082 50.0087V51.0051C22.6086 51.0514 22.5912 51.096 22.5596 51.1293C22.5444 51.1455 22.5262 51.1582 22.506 51.1668C22.4857 51.1753 22.464 51.1796 22.4421 51.179H19.0128C18.9902 51.1801 18.9677 51.1762 18.9468 51.1676C18.9257 51.159 18.9069 51.146 18.8912 51.1293C18.8623 51.0947 18.8465 51.0506 18.8466 51.0051V46.0029C18.8459 45.9573 18.8619 45.913 18.8912 45.8787C18.9064 45.8614 18.9253 45.8478 18.9463 45.8388C18.9674 45.8299 18.9901 45.8257 19.0128 45.8268H20.0458C20.0679 45.8263 20.0898 45.8308 20.1101 45.8397C20.1304 45.8486 20.1485 45.8619 20.1633 45.8787C20.1793 45.8948 20.1919 45.9142 20.2002 45.9356C20.2086 45.957 20.2126 45.9799 20.2119 46.0029V49.6608C20.2108 49.7065 20.2268 49.751 20.2565 49.785C20.2717 49.8017 20.2903 49.8148 20.3109 49.8234C20.3315 49.8319 20.3537 49.8358 20.376 49.8348H22.4502C22.4722 49.8347 22.494 49.8392 22.5142 49.8481C22.5344 49.8571 22.5526 49.8701 22.5677 49.8866C22.5993 49.9198 22.6168 49.9645 22.6163 50.0108" fill="white"/>
<path d="M24.482 51.1807H23.4469C23.4246 51.1818 23.4023 51.178 23.3817 51.1694C23.3611 51.1608 23.3425 51.1477 23.3274 51.131C23.2977 51.0968 23.2817 51.0524 23.2828 51.0067V46.0087C23.2817 45.963 23.2977 45.9186 23.3274 45.8845C23.3423 45.8674 23.3608 45.8538 23.3815 45.8449C23.4021 45.8359 23.4245 45.8317 23.4469 45.8326H24.482C24.5037 45.8326 24.5251 45.8372 24.545 45.8461C24.5649 45.855 24.5827 45.8681 24.5974 45.8845C24.629 45.9177 24.6465 45.9624 24.6461 46.0087V51.0067C24.6465 51.053 24.629 51.0977 24.5974 51.131C24.5826 51.147 24.5647 51.1598 24.5449 51.1684C24.525 51.177 24.5036 51.1811 24.482 51.1807Z" fill="white"/>
<path d="M29.2522 48.424C29.3293 48.471 29.4025 48.5243 29.471 48.5836C29.5481 48.6523 29.6162 48.7309 29.6735 48.8177C29.8121 49.0377 29.8827 49.2954 29.8761 49.557C29.885 49.8266 29.8373 50.095 29.7363 50.3442C29.6504 50.5394 29.519 50.71 29.3535 50.8412C29.1888 50.9681 28.9995 51.0578 28.7985 51.1043C28.5828 51.1566 28.3618 51.1823 28.1401 51.181H25.9647C25.943 51.1814 25.9217 51.1772 25.9018 51.1686C25.8819 51.16 25.864 51.1473 25.8491 51.1312C25.8176 51.098 25.8001 51.0533 25.8005 51.007V46.0027C25.7999 45.9797 25.8039 45.9568 25.8122 45.9355C25.8206 45.914 25.8332 45.8947 25.8491 45.8785C25.8637 45.8618 25.8814 45.8486 25.9014 45.8395C25.9213 45.8306 25.9429 45.8263 25.9647 45.8267H28.045C28.2586 45.8256 28.4715 45.8512 28.6789 45.9034C28.872 45.95 29.0539 46.0359 29.2137 46.1561C29.371 46.2765 29.498 46.4333 29.5844 46.6138C29.6854 46.8286 29.734 47.0653 29.7262 47.3035C29.7313 47.5054 29.6777 47.7045 29.5722 47.8752C29.4828 48.0208 29.3698 48.1496 29.238 48.2563C29.155 48.3185 29.159 48.3744 29.2522 48.424ZM27.3299 47.8607H27.97C28.0131 47.8621 28.0559 47.8523 28.0945 47.8324C28.1331 47.8125 28.1662 47.7831 28.1908 47.7468C28.245 47.6742 28.2741 47.5854 28.2738 47.4941C28.2739 47.4512 28.265 47.4089 28.2475 47.3698C28.23 47.3308 28.2045 47.2962 28.1725 47.2684C28.1238 47.2132 28.0566 47.1791 27.9841 47.173H27.3299C27.308 47.1725 27.2863 47.1768 27.266 47.1853C27.2458 47.1939 27.2276 47.2066 27.2125 47.2228C27.1809 47.256 27.1633 47.3007 27.1638 47.347V47.6847C27.1631 47.7077 27.1671 47.7306 27.1755 47.7519C27.1839 47.7734 27.1964 47.7927 27.2125 47.8089C27.2272 47.8257 27.2454 47.8389 27.2656 47.8479C27.2859 47.8568 27.3078 47.8612 27.3299 47.8607ZM28.053 49.0683H27.3299C27.308 49.0678 27.2863 49.0719 27.266 49.0805C27.2458 49.089 27.2276 49.1018 27.2125 49.1179C27.1809 49.1512 27.1633 49.1959 27.1638 49.2423V49.6565C27.1633 49.7028 27.1809 49.7475 27.2125 49.7807C27.2276 49.7969 27.2458 49.8097 27.266 49.8183C27.2863 49.8269 27.308 49.831 27.3299 49.8305H28.1017C28.1457 49.8292 28.1891 49.8189 28.2291 49.8C28.2691 49.7812 28.3051 49.7541 28.3346 49.7206C28.3694 49.6884 28.3973 49.6492 28.4165 49.6053C28.4358 49.5615 28.4457 49.5139 28.446 49.466C28.4414 49.3669 28.4034 49.2725 28.3387 49.1988C28.3049 49.1547 28.2615 49.1196 28.2117 49.0962C28.1621 49.0728 28.1077 49.0618 28.053 49.0642" fill="white"/>
<path d="M32.0537 51.181H31.0228C31.0009 51.1815 30.9791 51.1773 30.9589 51.1688C30.9386 51.1602 30.9204 51.1475 30.9052 51.1313C30.8736 51.098 30.8562 51.0534 30.8566 51.0071V46.0029C30.856 45.9798 30.8599 45.9569 30.8683 45.9356C30.8766 45.9142 30.8893 45.8947 30.9052 45.8786C30.9196 45.8619 30.9375 45.8486 30.9574 45.8397C30.9774 45.8307 30.9989 45.8263 31.0207 45.8268H33.1638C33.4164 45.8242 33.667 45.8728 33.9011 45.9697C34.1181 46.0594 34.3142 46.1949 34.4764 46.3674C34.6377 46.5437 34.7636 46.7506 34.8471 46.9763C34.9941 47.3732 35.023 47.8055 34.9301 48.2191C34.8971 48.3693 34.8474 48.5153 34.7822 48.6541C34.7208 48.7861 34.6447 48.9106 34.5554 49.0249C34.4715 49.1314 34.3716 49.2236 34.2596 49.2983C34.2249 49.3246 34.1994 49.3616 34.1867 49.4039C34.1808 49.4247 34.18 49.4468 34.1841 49.468C34.1884 49.4893 34.1976 49.5092 34.211 49.526C34.3852 49.7684 34.5696 50.0211 34.762 50.2779C34.9544 50.5348 35.1266 50.773 35.2785 50.9884C35.292 51.0064 35.301 51.0276 35.3045 51.05C35.3081 51.0724 35.3061 51.0953 35.2987 51.1168C35.2944 51.1373 35.283 51.1554 35.2666 51.168C35.2502 51.1805 35.23 51.1866 35.2096 51.1852H33.9295C33.8772 51.1841 33.8259 51.1707 33.7796 51.1458C33.7321 51.1235 33.691 51.0893 33.6601 51.0464C33.5142 50.8393 33.3683 50.6321 33.2246 50.425C33.0807 50.2178 32.9369 50.0107 32.7951 49.7891C32.7653 49.7467 32.7256 49.7125 32.6797 49.6897C32.6355 49.665 32.5862 49.6514 32.5358 49.6504H32.3819C32.3604 49.6502 32.339 49.6545 32.3191 49.663C32.2993 49.6716 32.2814 49.6841 32.2665 49.7001C32.2349 49.7334 32.2174 49.778 32.2179 49.8243V51.0112C32.2183 51.0575 32.2008 51.1022 32.1692 51.1354C32.154 51.1516 32.1358 51.1643 32.1156 51.1729C32.0954 51.1814 32.0736 51.1857 32.0518 51.1852L32.0537 51.181ZM32.3819 48.2999H33.1091C33.1679 48.2983 33.226 48.2872 33.2813 48.2667C33.342 48.2434 33.3978 48.2083 33.4453 48.1632C33.5017 48.1112 33.5463 48.0471 33.5756 47.9755C33.605 47.9039 33.6186 47.8266 33.6155 47.749C33.6139 47.691 33.6065 47.6333 33.5932 47.577C33.5758 47.5093 33.5477 47.445 33.5102 47.3864C33.4695 47.3239 33.4155 47.2714 33.3522 47.2332C33.2784 47.1899 33.1942 47.1683 33.1091 47.171H32.3819C32.3602 47.1707 32.3386 47.1752 32.3187 47.1841C32.2987 47.1931 32.281 47.2063 32.2665 47.2228C32.2504 47.239 32.2379 47.2584 32.2295 47.2798C32.2211 47.3012 32.2172 47.3241 32.2179 47.3471V48.1218C32.2172 48.1448 32.2211 48.1677 32.2295 48.1891C32.2379 48.2105 32.2504 48.2298 32.2665 48.246C32.281 48.2626 32.2987 48.2758 32.3187 48.2848C32.3386 48.2937 32.3602 48.2981 32.3819 48.2978" fill="white"/>
<path d="M37.2433 51.1807H36.2082C36.186 51.1818 36.1638 51.178 36.1431 51.1694C36.1224 51.1608 36.1039 51.1477 36.0887 51.131C36.059 51.0968 36.043 51.0524 36.0442 51.0067V46.0087C36.043 45.963 36.059 45.9186 36.0887 45.8845C36.1037 45.8674 36.1221 45.8538 36.1428 45.8449C36.1635 45.8359 36.1859 45.8317 36.2082 45.8326H37.2433C37.265 45.8329 37.2865 45.8375 37.3063 45.8464C37.3262 45.8553 37.344 45.8683 37.3588 45.8845C37.3904 45.9177 37.4078 45.9624 37.4074 46.0087V51.0067C37.4078 51.053 37.3904 51.0977 37.3588 51.131C37.3439 51.1468 37.3259 51.1595 37.306 51.1681C37.2863 51.1766 37.2649 51.1809 37.2433 51.1807Z" fill="white"/>
<path d="M38.5517 46.009C38.5513 45.9626 38.5687 45.918 38.6003 45.8847C38.6151 45.8685 38.6331 45.8556 38.6529 45.8468C38.6728 45.8379 38.6941 45.8331 38.7158 45.833H39.7509C39.7728 45.8329 39.7947 45.8375 39.8149 45.8464C39.8351 45.8553 39.8533 45.8683 39.8684 45.8847C39.8987 45.9187 39.9152 45.963 39.9149 46.009V48.973C39.9103 49.1343 39.94 49.2948 40.0021 49.4432C40.0516 49.5562 40.1249 49.6566 40.2167 49.7373C40.2972 49.8052 40.3902 49.856 40.4902 49.8864C40.5755 49.9136 40.6642 49.9282 40.7535 49.9299C40.8423 49.9282 40.9302 49.9136 41.0148 49.8864C41.1144 49.8564 41.2068 49.8056 41.2862 49.7373C41.3733 49.655 41.4423 49.5548 41.4888 49.4432C41.5501 49.2946 41.5792 49.1342 41.5739 48.973V46.009C41.5735 45.9626 41.5909 45.918 41.6225 45.8847C41.6375 45.8683 41.6558 45.8553 41.676 45.8464C41.6962 45.8375 41.718 45.8329 41.74 45.833H42.7751C42.7968 45.8331 42.8182 45.8379 42.8381 45.8468C42.8579 45.8556 42.8758 45.8685 42.8906 45.8847C42.9221 45.918 42.9396 45.9626 42.9392 46.009V48.973C42.943 49.2942 42.8902 49.6134 42.7832 49.9154C42.689 50.1862 42.5384 50.4327 42.3419 50.6379C42.1454 50.8432 41.9075 51.0023 41.6448 51.1044C41.064 51.3253 40.4248 51.3253 39.844 51.1044C39.5829 51.0019 39.346 50.8437 39.1493 50.6404C38.9523 50.4333 38.7997 50.1864 38.7016 49.9154C38.593 49.6138 38.5394 49.2944 38.5436 48.973L38.5517 46.009Z" fill="white"/>
<path d="M49.7472 46.009V51.007C49.7477 51.053 49.731 51.0973 49.7007 51.1313C49.6856 51.1474 49.6672 51.1602 49.647 51.1687C49.6268 51.1773 49.6051 51.1815 49.5832 51.181H48.5481C48.5265 51.1815 48.5052 51.1772 48.4853 51.1687C48.4654 51.1601 48.4475 51.1474 48.4326 51.1313C48.4011 51.098 48.3836 51.0534 48.384 51.007V48.6499C48.3855 48.6403 48.385 48.6305 48.3825 48.6212C48.3801 48.6118 48.3757 48.6031 48.3698 48.5955C48.364 48.588 48.3567 48.5816 48.3483 48.5772C48.3399 48.5726 48.3307 48.5698 48.3212 48.5691C48.301 48.5671 48.2807 48.5709 48.2625 48.58C48.2441 48.5891 48.2288 48.6033 48.218 48.6209L47.0573 50.6031C47.0464 50.6226 47.0303 50.6385 47.011 50.6491C46.9917 50.6598 46.9698 50.6645 46.9478 50.6632C46.9249 50.6641 46.9021 50.6592 46.8816 50.6486C46.861 50.6381 46.8434 50.6225 46.8304 50.6031L45.6697 48.6209C45.6611 48.6033 45.6472 48.5888 45.6302 48.5795C45.6131 48.5702 45.5938 48.5666 45.5746 48.5691C45.5652 48.5698 45.5559 48.5726 45.5475 48.5772C45.5391 48.5816 45.5318 48.588 45.526 48.5955C45.5201 48.6031 45.5157 48.6118 45.5133 48.6212C45.5108 48.6305 45.5103 48.6403 45.5118 48.6499V51.007C45.5122 51.0534 45.4947 51.098 45.4632 51.1313C45.4483 51.1472 45.4303 51.1598 45.4104 51.1683C45.3906 51.1769 45.3692 51.1812 45.3477 51.181H44.3126C44.2907 51.1815 44.269 51.1773 44.2488 51.1687C44.2286 51.1602 44.2102 51.1474 44.1951 51.1313C44.1641 51.0978 44.1473 51.0531 44.1486 51.007V46.009C44.1473 45.9629 44.1641 45.9182 44.1951 45.8847C44.2101 45.8683 44.2284 45.8553 44.2486 45.8464C44.2688 45.8375 44.2905 45.8329 44.3126 45.833H45.2707C45.3219 45.8339 45.3718 45.8498 45.4146 45.8785C45.4594 45.9022 45.4978 45.9371 45.526 45.98L46.8506 48.0513C46.861 48.0683 46.8752 48.0826 46.8922 48.0927C46.9092 48.1028 46.9283 48.1085 46.9478 48.1093C46.9666 48.1092 46.9848 48.1037 47.0006 48.0934C47.0165 48.0832 47.029 48.0685 47.037 48.0513L48.3638 45.98C48.3941 45.9376 48.4336 45.9027 48.4793 45.8785C48.5223 45.8503 48.572 45.8346 48.6231 45.833H49.5832C49.6053 45.8329 49.627 45.8375 49.6472 45.8464C49.6674 45.8553 49.6857 45.8683 49.7007 45.8847C49.731 45.9187 49.7477 45.963 49.7472 46.009Z" fill="white"/>
<path d="M0.00661862 42.9889V37.9661C0.00572439 37.9435 0.00980909 37.9209 0.0185739 37.9002C0.0273387 37.8793 0.0405598 37.8608 0.0572586 37.846C0.0905426 37.8153 0.134058 37.799 0.17879 37.8004H49.577C49.6212 37.7989 49.6641 37.8153 49.6965 37.846C49.7135 37.8605 49.727 37.8789 49.7358 37.8999C49.7446 37.9207 49.7485 37.9434 49.7471 37.9661V42.9889C49.7474 43.0111 49.7431 43.0332 49.7344 43.0535C49.7256 43.0739 49.7127 43.0922 49.6965 43.107C49.6643 43.1382 49.6214 43.1553 49.577 43.1545H0.174741C0.129731 43.1554 0.086174 43.1383 0.0532034 43.107C0.037384 43.0919 0.0247381 43.0735 0.0160332 43.0532C0.0073284 43.0329 0.00274603 43.011 0.00256348 42.9889" fill="white"/>
</g>
<defs>
<clipPath id="clip0_1_377">
<rect width="49.75" height="50.77" fill="white" transform="translate(0 0.5)"/>
</clipPath>
</defs>
</svg>
