<svg width="51" height="20" viewBox="0 0 51 20" fill="none" xmlns="http://www.w3.org/2000/svg">
<g opacity="0.7">
<path d="M24.6053 9.77295L23.2028 12.7498H23.1732L21.7707 9.77295H22.1278L23.1942 12.0706L24.2607 9.77295H24.6053Z" fill="white"/>
<path d="M26.2593 9.77295H26.591V12.6238H26.2593V9.77295Z" fill="white"/>
<path d="M28.4553 12.3431V11.9154H28.4596C28.657 12.2047 29.0012 12.4018 29.3582 12.4018C29.6857 12.4018 29.9419 12.1837 29.9419 11.8902C29.9419 11.5675 29.6814 11.4291 29.3707 11.2993L29.1943 11.2281C28.8037 11.0644 28.5055 10.8969 28.5055 10.4482C28.5055 10.0039 28.9085 9.70605 29.341 9.70605C29.7063 9.70605 29.95 9.89074 30.0843 10.0163V10.4397H30.0801C29.8406 10.1127 29.593 9.99958 29.3286 9.99958C29.0599 9.99958 28.8291 10.1633 28.8291 10.4397C28.8291 10.7036 29.0179 10.8086 29.2994 10.9217L29.4715 10.9929C29.9208 11.1814 30.2607 11.4038 30.2607 11.8692C30.2607 12.3345 29.8492 12.6992 29.3496 12.6992C28.9295 12.6992 28.6149 12.5149 28.4553 12.3431Z" fill="white"/>
<path d="M32.0911 9.77295H32.4228V12.6238H32.0911V9.77295Z" fill="white"/>
<path d="M34.2661 11.1988C34.2661 10.3559 34.942 9.69385 35.7986 9.69385C36.6509 9.69385 37.3311 10.3563 37.3311 11.1988C37.3311 12.0416 36.6509 12.7037 35.7986 12.7037C34.942 12.7037 34.2661 12.0412 34.2661 11.1988ZM36.9912 11.1988C36.9912 10.5196 36.4621 9.99552 35.7986 9.99552C35.1351 9.99552 34.606 10.5196 34.606 11.1988C34.606 11.878 35.1351 12.402 35.7986 12.402C36.4621 12.402 36.9912 11.878 36.9912 11.1988Z" fill="white"/>
<path d="M41.6352 9.77301V12.7079H41.6056L39.4975 10.4441V12.6243H39.1783V9.68945H39.2117L41.3155 11.9533V9.77301H41.6352Z" fill="white"/>
<path d="M43.5033 12.3431V11.9154H43.5076C43.705 12.2047 44.0492 12.4018 44.4062 12.4018C44.7337 12.4018 44.9899 12.1837 44.9899 11.8902C44.9899 11.5675 44.7294 11.4291 44.4187 11.2993L44.2423 11.2281C43.8518 11.0644 43.5535 10.8969 43.5535 10.4482C43.5535 10.0039 43.9565 9.70605 44.3891 9.70605C44.7543 9.70605 44.9981 9.89074 45.1324 10.0163V10.4397H45.1281C44.8886 10.1127 44.641 9.99958 44.3766 9.99958C44.108 9.99958 43.8771 10.1633 43.8771 10.4397C43.8771 10.7036 44.0659 10.8086 44.3475 10.9217L44.5195 10.9929C44.9689 11.1814 45.3088 11.4038 45.3088 11.8692C45.3088 12.3345 44.8972 12.6992 44.3977 12.6992C43.9775 12.6992 43.6629 12.5149 43.5033 12.3431Z" fill="white"/>
<path d="M22.6951 7.98405C22.5084 7.68538 22.3895 7.28086 22.3895 6.88835C22.3895 6.50269 22.4908 6.14017 22.6689 5.82608L22.6887 5.79094C22.8668 5.43399 23.2684 5.18974 23.6594 5.18974V5.18931C23.9152 5.18931 24.1881 5.26387 24.3997 5.374C24.7847 5.61096 25.0877 5.96663 25.2589 6.39085V5.7468C25.2576 5.60239 25.0374 5.4447 25.0374 5.4447C24.6619 5.16874 24.198 5.01019 23.6959 5.00977C23.492 5.00977 23.2067 5.06162 23.2067 5.06162C22.3629 5.23987 21.7312 5.99277 21.7312 6.88835C21.7312 7.84435 22.4535 8.63152 23.3826 8.73608C23.3826 8.73608 23.5749 8.76479 23.7028 8.75622C24.2465 8.75622 24.7456 8.56511 25.1357 8.24629L25.1868 8.18802C25.2336 8.12631 25.2615 8.05004 25.2615 7.96776V7.43298C25.2615 7.27444 25.34 7.13389 25.4597 7.04733H24.4602C24.58 7.13389 24.6576 7.27401 24.6576 7.43298L24.6649 7.93305C24.6649 8.03247 24.6246 8.12288 24.5598 8.18802C24.4778 8.27886 24.1645 8.43784 24.1645 8.43784C24.0126 8.51926 23.8392 8.56511 23.6556 8.56511C23.2388 8.56511 22.8745 8.33028 22.6951 7.98405Z" fill="white"/>
<path d="M32.8696 6.87865C32.8696 7.77423 33.5009 8.5087 34.3446 8.6861C34.3446 8.6861 34.6296 8.73838 34.8339 8.73795C35.3355 8.73752 35.7917 8.58111 36.1673 8.30515C36.1673 8.30515 36.3956 8.16375 36.3964 8.01977L36.4857 7.33844C36.2269 7.98077 35.7909 8.22159 35.5377 8.36772C35.3257 8.47784 35.0527 8.55669 34.797 8.55669V8.55626C34.406 8.55626 34.0069 8.33301 33.8288 7.97563L33.8069 7.94006C33.6292 7.62682 33.5279 7.2643 33.5279 6.87822C33.5279 6.49213 33.6292 6.12961 33.8069 5.81637L33.8271 5.78081C34.0052 5.42386 34.4064 5.17961 34.797 5.17961V5.17918C35.0523 5.17918 35.3257 5.25417 35.5377 5.36387C35.9222 5.60083 36.2256 5.95649 36.3964 6.38072V5.73753C36.3956 5.59312 36.1758 5.43543 36.1758 5.43543C35.7999 5.15947 35.336 5.00092 34.8343 5.00049C34.63 5.00006 34.345 5.05191 34.345 5.05191C33.5009 5.22974 32.8696 5.98306 32.8696 6.87865Z" fill="white"/>
<path d="M38.6826 6.882C38.6826 7.77759 39.3138 8.51248 40.1576 8.68988C40.1576 8.68988 40.4434 8.74216 40.6468 8.74173C41.1489 8.7413 41.6047 8.58533 41.9802 8.30894C41.9802 8.30894 42.209 8.16753 42.2094 8.02312L42.2986 7.34222C42.0399 7.98456 41.6043 8.22495 41.3506 8.3715C41.1391 8.4812 40.8657 8.56004 40.6103 8.56004C40.2185 8.56004 39.8194 8.33679 39.6417 7.97941L39.6198 7.94385C39.4417 7.63018 39.3405 7.26766 39.3405 6.88157C39.3405 6.49549 39.4417 6.1334 39.6198 5.81973L39.6396 5.78416C39.8173 5.42679 40.2185 5.18339 40.6103 5.18339V5.18253C40.8657 5.18253 41.1391 5.2571 41.3506 5.36722C41.7352 5.60419 42.0386 5.95985 42.2094 6.38407V5.74045C42.209 5.59605 41.9884 5.43835 41.9884 5.43835C41.6133 5.16282 41.1489 5.00385 40.6468 5.00342C40.4434 5.00342 40.1576 5.05527 40.1576 5.05527C39.3143 5.23353 38.6826 5.98685 38.6826 6.882Z" fill="white"/>
<path d="M45.2182 5.16309H44.247C44.3668 5.24665 44.4445 5.38377 44.4445 5.54017V8.37048C44.4445 8.5226 44.3711 8.65715 44.2573 8.74157H45.2079C45.0942 8.65758 45.0208 8.5226 45.0208 8.37048V5.53975C45.0212 5.38334 45.0989 5.24622 45.2182 5.16309Z" fill="white"/>
<path d="M28.2261 5.54403C28.2261 5.38762 28.3042 5.24665 28.4235 5.16309H28.4248H27.454C27.5733 5.24665 27.6515 5.3872 27.6515 5.54403L27.6506 5.54532V7.65787V7.66044C27.6841 8.04652 27.9265 8.37476 28.2647 8.5256L28.2686 8.52731C28.5445 8.66186 28.8518 8.74114 29.1801 8.74114C29.5131 8.74114 29.8273 8.67 30.1062 8.53202L30.1118 8.52945C30.45 8.37605 30.6908 8.04738 30.7212 7.66001V7.65958V5.5346C30.7212 5.3782 30.7989 5.24665 30.9182 5.16309H30.3513C30.4706 5.24665 30.5487 5.3782 30.5487 5.5346V7.65958L30.5478 7.66686C30.5242 7.9004 30.4101 8.10694 30.2384 8.24921L30.2307 8.25692C30.0393 8.40476 29.7024 8.51746 29.3848 8.51746C29.1866 8.51746 28.9973 8.47589 28.8231 8.40947L28.805 8.40219C28.493 8.29377 28.2626 8.00153 28.227 7.66215V7.65744V5.54489L28.2261 5.54403Z" fill="white"/>
</g>
</svg>
